<?xml version="1.0" encoding="UTF-8" standalone="no"?>
<svg
   xmlns:dc="http://purl.org/dc/elements/1.1/"
   xmlns:cc="http://creativecommons.org/ns#"
   xmlns:rdf="http://www.w3.org/1999/02/22-rdf-syntax-ns#"
   xmlns:svg="http://www.w3.org/2000/svg"
   xmlns="http://www.w3.org/2000/svg"
   xmlns:sodipodi="http://sodipodi.sourceforge.net/DTD/sodipodi-0.dtd"
   xmlns:inkscape="http://www.inkscape.org/namespaces/inkscape"
   viewBox="0 0 24 24"
   version="1.1"
   id="svg139"
   sodipodi:docname="card-account-details.svg"
   inkscape:version="1.0.2 (e86c870879, 2021-01-15)">
  <metadata
     id="metadata145">
    <rdf:RDF>
      <cc:Work
         rdf:about="">
        <dc:format>image/svg+xml</dc:format>
        <dc:type
           rdf:resource="http://purl.org/dc/dcmitype/StillImage" />
      </cc:Work>
    </rdf:RDF>
  </metadata>
  <defs
     id="defs143" />
  <sodipodi:namedview
     pagecolor="#ffffff"
     bordercolor="#666666"
     borderopacity="1"
     objecttolerance="10"
     gridtolerance="10"
     guidetolerance="10"
     inkscape:pageopacity="0"
     inkscape:pageshadow="2"
     inkscape:window-width="1054"
     inkscape:window-height="1059"
     id="namedview141"
     showgrid="false"
     inkscape:zoom="35.625"
     inkscape:cx="12"
     inkscape:cy="12"
     inkscape:window-x="0"
     inkscape:window-y="19"
     inkscape:window-maximized="0"
     inkscape:current-layer="svg139" />
  <path
     d="M2,3H22C23.05,3 24,3.95 24,5V19C24,20.05 23.05,21 22,21H2C0.95,21 0,20.05 0,19V5C0,3.95 0.95,3 2,3M14,6V7H22V6H14M14,8V9H21.5L22,9V8H14M14,10V11H21V10H14M8,13.91C6,13.91 2,15 2,17V18H14V17C14,15 10,13.91 8,13.91M8,6A3,3 0 0,0 5,9A3,3 0 0,0 8,12A3,3 0 0,0 11,9A3,3 0 0,0 8,6Z"
     id="path137"
     style="fill:#ffffff" />
</svg>
