<?xml version="1.0" encoding="UTF-8" standalone="no"?>
<svg
   xmlns:dc="http://purl.org/dc/elements/1.1/"
   xmlns:cc="http://creativecommons.org/ns#"
   xmlns:rdf="http://www.w3.org/1999/02/22-rdf-syntax-ns#"
   xmlns:svg="http://www.w3.org/2000/svg"
   xmlns="http://www.w3.org/2000/svg"
   xmlns:sodipodi="http://sodipodi.sourceforge.net/DTD/sodipodi-0.dtd"
   xmlns:inkscape="http://www.inkscape.org/namespaces/inkscape"
   id="Layer_1"
   xml:space="preserve"
   version="1.0"
   viewBox="0 0 59.999997 59.999999"
   inkscape:version="1.0.2 (e86c870879, 2021-01-15)"
   sodipodi:docname="perfil-tegan.svg"
   width="60"
   height="60"><defs
   id="defs77" /><sodipodi:namedview
   pagecolor="#ffffff"
   bordercolor="#666666"
   borderopacity="1"
   objecttolerance="10"
   gridtolerance="10"
   guidetolerance="10"
   inkscape:pageopacity="0"
   inkscape:pageshadow="2"
   inkscape:window-width="1918"
   inkscape:window-height="1059"
   id="namedview75"
   showgrid="false"
   inkscape:zoom="10.230173"
   inkscape:cx="22.838073"
   inkscape:cy="31.368947"
   inkscape:window-x="0"
   inkscape:window-y="19"
   inkscape:window-maximized="0"
   inkscape:current-layer="Layer_1" />
<rect
   style="fill:#afe9dd;stroke-width:1.00362"
   id="rect79"
   width="60.001461"
   height="59.995922"
   x="0.0041680429"
   y="0.073827557" /><g
   id="g5"
   transform="matrix(0.06710716,0,0,0.06710716,11.012034,15.970284)">
	<path
   id="path7"
   style="fill-rule:evenodd;stroke:#000000;stroke-width:0.036;stroke-miterlimit:10"
   d="m 339.68,94.519 c 1.34,-6.264 6.2,-13.572 14.73,-22.608 8.57,-9.18 23.4,-21.779 36.32,-30.996 12.93,-9.252 28.15,-17.495 40.25,-23.615 11.92,-6.192 22.14,-10.009 30.67,-12.816 8.32,-2.808 13.79,-6.012 19.19,-3.636 5.29,2.268 8.86,7.2 12.49,17.567 3.67,10.44 6.99,28.837 9.11,44.496 2.02,15.66 2.88,34.416 2.88,48.489 -0.04,13.97 -1.22,25.82 -3.28,34.71 -2.19,8.6 -3.85,14.11 -9.39,17.64 -5.58,3.53 -13.57,4.79 -23.98,3.63 -12.2,-21.2 -28.69,-37.51 -50.29,-49.75 -21.71,-12.27 -47.52,-19.799 -78.7,-23.111 z" />
	<path
   id="path9"
   style="fill:#616161;fill-rule:evenodd;stroke:#000000;stroke-width:0.036;stroke-miterlimit:10"
   d="m 349.55,82.099 c 7.67,-9.145 16.63,-17.82 27.43,-26.604 10.84,-8.928 24.8,-18.468 36.65,-25.704 11.73,-7.235 22.61,-12.743 33.05,-17.063 10.29,-4.464 21.42,-8.964 28.36,-8.784 6.81,0.145 8.86,2.521 12.53,10.044 3.53,7.524 6.52,22.176 8.82,34.813 2.23,12.563 3.6,27.396 4.65,40.067 0.9,12.532 1.83,23.762 1,34.522 -0.93,10.69 -3.67,22.61 -6.12,29.23 -2.55,6.38 -5.32,7.46 -8.85,9.65 -3.71,2.23 -7.74,3.31 -12.64,3.53 l -11.48,-16.09 c 4.68,-1.48 8.24,-4.22 10.83,-8.21 2.49,-4.07 3.57,-8.53 4.65,-16.02 1.01,-7.6 1.69,-20.34 1.65,-29.09 -0.1,-8.856 -0.79,-14.904 -2.05,-23.292 -1.26,-8.46 -2.55,-20.664 -5.83,-26.893 -3.46,-6.336 -6.73,-10.8 -14.54,-10.476 -7.92,0.324 -22.86,7.632 -32.33,12.348 -9.51,4.681 -15.55,8.712 -24.12,15.444 -8.64,6.624 -17.5,14.472 -27.11,23.94 -8.17,-1.762 -16.34,-3.562 -24.55,-5.362 z" />
	<path
   id="path11"
   style="fill:#c0c0c0;fill-rule:evenodd;stroke:#000000;stroke-width:0.036;stroke-miterlimit:10"
   d="m 456.4,145.89 c 5.04,-0.83 9.1,-2.19 12.06,-4.53 2.88,-2.34 4.24,-3.53 5.76,-9.26 1.51,-5.9 2.88,-15.8 3.27,-25.12 0.29,-9.473 0.04,-20.165 -1.29,-30.281 -1.55,-10.08 -4.22,-23.58 -7.17,-29.664 -2.99,-6.084 -5.4,-6.768 -10.15,-7.056 -4.93,-0.468 -10.91,1.368 -18.61,4.68 -7.71,3.385 -18.65,9.145 -27.15,14.904 -8.53,5.58 -18.57,13.644 -23.61,18.216 -5.11,4.464 -4.57,5.58 -6.84,8.641 -2.31,3.023 -4.68,5.976 -6.99,9.252 9.76,2.844 18.65,6.008 27.26,9.358 8.49,3.31 16.27,6.23 23.72,10.84 7.45,4.53 15.48,11.3 20.59,16.41 4.93,5.04 8.03,9.44 9.15,13.61 z" />
	<path
   id="path13"
   style="fill-rule:evenodd;stroke:#000000;stroke-width:0.036;stroke-miterlimit:10"
   d="M 202.7,97.507 C 199.93,91.819 193.34,85.807 182.94,79.183 172.32,72.451 154.82,63.703 140.17,57.943 125.38,52.147 108.46,47.827 95.389,44.839 82.249,41.815 71.341,40.446 62.521,39.906 53.665,39.186 47.617,37.53 43.009,41.058 c -4.572,3.528 -6.912,9.107 -7.848,20.088 -0.972,10.98 0.036,29.664 2.052,45.364 1.836,15.62 5.436,34.12 9,47.73 3.42,13.54 7.344,24.77 11.628,32.87 4.104,7.95 7.128,12.67 13.392,14.83 6.3,2.02 14.256,1.33 24.156,-2.34 6.621,-23.54 18.651,-43.34 36.651,-60.52 18.14,-17.13 41.14,-30.81 70.66,-41.573 z" />
	<path
   id="path15"
   style="fill:#616161;fill-rule:evenodd;stroke:#000000;stroke-width:0.036;stroke-miterlimit:10"
   d="M 189.42,87.859 C 179.77,80.947 168.83,74.647 156.3,68.815 143.7,62.947 127.54,56.899 114.47,52.903 101.26,48.763 89.376,46.135 78.252,44.479 67.092,42.751 55.212,41.023 48.588,42.895 c -6.696,1.836 -8.028,4.68 -9.684,12.816 -1.692,8.208 -0.9,23.04 0,35.892 0.9,12.777 3.096,27.507 5.328,39.997 2.16,12.27 3.96,23.51 7.488,33.7 3.492,10.11 8.928,21.06 13.104,26.85 3.96,5.62 6.912,5.98 10.944,7.2 4.032,1.22 8.352,1.37 13.104,0.29 l 7.164,-18.4 c -4.824,-0.32 -9.036,-2.05 -12.492,-5.33 -3.6,-3.34 -5.58,-7.34 -8.424,-14.36 -2.952,-7.06 -6.66,-19.37 -8.748,-27.79 -2.088,-8.6 -3.06,-14.69 -3.744,-23.11 -0.864,-8.46 -2.7,-20.667 -0.936,-27.471 1.836,-7.021 3.744,-12.097 11.556,-13.716 7.74,-1.549 23.904,1.691 34.342,4.031 10.3,2.196 17.14,4.717 27.18,9.072 10.01,4.248 20.45,9.756 32.15,16.524 7.49,-3.743 14.98,-7.487 22.5,-11.231 z" />
	<path
   id="path17"
   style="fill:#c0c0c0;fill-rule:evenodd;stroke:#000000;stroke-width:0.036;stroke-miterlimit:10"
   d="m 102.08,175.77 c -5.144,0.51 -9.32,-0.03 -12.812,-1.47 -3.492,-1.52 -5.04,-2.42 -7.848,-7.57 -3.024,-5.32 -6.732,-14.61 -9.324,-23.58 -2.592,-9 -5.04,-19.58 -6.084,-29.66 -1.152,-10.19 -1.62,-23.832 -0.288,-30.527 1.296,-6.696 3.456,-7.813 8.136,-9.324 4.608,-1.656 10.872,-1.332 19.188,0 8.242,1.296 20.272,4.464 29.952,7.848 9.58,3.276 21.24,8.748 27.36,11.952 5.98,2.952 5.69,4.392 8.71,6.701 2.99,2.34 5.91,4.71 9.04,7.27 -8.79,5.14 -16.71,10.33 -24.16,15.69 -7.45,5.26 -14.33,10.08 -20.34,16.27 -6.15,6.19 -12.42,14.8 -16.02,20.95 -3.71,6.06 -5.36,11.2 -5.51,15.45 z" />
	<path
   id="path19"
   style="fill-rule:evenodd;stroke:#000000;stroke-width:0.036;stroke-miterlimit:10"
   d="m 263.76,81.451 c -12.1,1.729 -20.63,3.024 -30.02,3.744 -9.47,0.504 -15.59,-0.612 -26.28,0 -10.88,0.576 -24.88,-0.54 -37.55,3.744 -12.78,4.248 -28.15,14.041 -37.91,21.601 -9.83,7.42 -13.64,11.74 -20.34,22.68 -6.88,10.91 -13.644,26.42 -19.728,41.83 -6.156,15.34 -12.276,32.29 -16.272,49.36 -3.996,16.99 -7.812,34.13 -7.56,51.69 0.18,17.43 2.16,35.79 8.712,52.31 6.552,16.45 13.104,33.27 30.208,45.87 17.2,12.49 47.08,22.35 71.46,28.47 24.12,5.87 44.24,6.63 72.61,6.99 28.33,0.28 65.66,0.25 96.44,-5.26 30.67,-5.76 64.01,-15.37 86.55,-28.44 22.35,-13.14 35.35,-31.64 47.05,-49.39 11.48,-17.89 17.17,-36.72 22.07,-56.34 4.78,-19.66 9.43,-40.07 6.98,-60.41 -2.66,-20.52 -10.3,-42.8 -22.07,-61.02 C 476.23,130.63 460.1,114.25 439.87,101.83 419.5,89.406 389.83,79.578 367.26,75.114 c -22.64,-4.464 -44.14,-1.224 -61.56,0 -17.35,1.081 -29.99,4.537 -41.94,6.337 z" />
	<path
   id="path21"
   style="fill:#616161;fill-rule:evenodd;stroke:#000000;stroke-width:0.036;stroke-miterlimit:10"
   d="m 111.95,141.5 c -8.68,12.6 -13.394,26.64 -18.866,40.32 -5.544,13.54 -10.152,25.63 -13.68,41 -3.6,15.45 -7.38,32.73 -7.164,50.73 0.216,17.85 1.512,38.95 8.46,55.94 6.84,16.89 15.048,33.05 32.54,44.89 17.68,11.74 46.52,20.2 72.22,25.38 25.52,5.12 48.82,6.02 79.99,5.22 31.11,-0.9 74.85,-2.98 105.41,-10.44 30.49,-7.66 56.7,-19.8 76.1,-34.45 19.23,-14.72 29.31,-35.71 38.42,-52.7 8.85,-17.1 11.52,-32.58 14.94,-48.82 3.27,-16.27 7.23,-31.39 5.22,-48.13 -2.27,-16.88 -8.5,-36.04 -17.57,-52.06 -9.18,-16.09 -18.87,-30.88 -36.43,-43.56 -17.72,-12.7 -41.19,-26.348 -68.33,-31.892 -27.4,-5.58 -67,-2.448 -93.67,-1.296 -26.5,1.008 -46.16,6.155 -64.41,7.812 -18.43,1.548 -31.35,-0.9 -44.89,1.944 -13.5,2.808 -24.41,6.552 -35.78,14.972 -11.52,8.46 -23.98,22.4 -32.51,35.14 z" />
	<path
   id="path23"
   style="fill-rule:evenodd;stroke:#000000;stroke-width:0.036;stroke-miterlimit:10"
   d="m 401.53,35.047 c -1.08,-2.088 -2.7,-4.681 -4.17,-6.805 -1.66,-2.34 -3.39,-5.399 -4.79,-6.264 -1.37,-0.972 -3.1,0.216 -3.24,1.08 -0.25,0.828 0.07,0.864 1.94,4.14 1.77,3.204 6.48,13.141 8.61,15.372 2.01,2.017 3.2,-1.008 3.56,-2.268 0.14,-1.403 -0.86,-3.203 -1.91,-5.255 z" />
	<path
   id="path25"
   style="fill-rule:evenodd;stroke:#000000;stroke-width:0.036;stroke-miterlimit:10"
   d="m 391.74,37.459 c -1.73,-1.62 -4.1,-3.456 -6.3,-4.933 -2.23,-1.512 -5.15,-3.924 -6.66,-4.176 -1.66,-0.396 -2.77,1.188 -2.66,2.124 0.07,0.792 0.36,0.756 3.24,3.204 2.8,2.448 10.72,10.008 13.46,11.412 2.56,1.296 2.7,-2.088 2.52,-3.349 -0.18,-1.402 -1.98,-2.698 -3.6,-4.282 z" />
	<path
   id="path27"
   style="fill-rule:evenodd;stroke:#000000;stroke-width:0.036;stroke-miterlimit:10"
   d="m 489.37,12.799 c 2.05,-1.225 3.89,-2.232 7.02,-3.42 3.1,-1.332 8.89,-2.736 11.13,-4.068 2.08,-1.44 3.6,-3.708 1.47,-3.888 -2.34,-0.217 -9.97,0.899 -14.69,2.771 -4.75,1.836 -11.48,5.94 -13.24,8.136 -1.77,2.089 1.4,4.213 2.84,4.429 1.48,-0.036 3.2,-2.7 5.47,-3.96 z" />
	<path
   id="path29"
   style="fill-rule:evenodd;stroke:#000000;stroke-width:0.036;stroke-miterlimit:10"
   d="m 492.04,23.923 c 1.76,-1.044 3.49,-2.053 6.15,-3.024 2.59,-1.224 7.89,-2.412 9.76,-3.563 1.87,-1.261 3.09,-3.276 1.29,-3.421 -1.98,-0.18 -8.82,0.828 -12.88,2.484 -4.22,1.656 -10.08,5.148 -11.63,7.128 -1.59,1.872 1.19,3.672 2.48,3.853 1.33,-0.037 2.81,-2.341 4.83,-3.457 z" />
	<path
   id="path31"
   style="fill-rule:evenodd;stroke:#000000;stroke-width:0.036;stroke-miterlimit:10"
   d="m 146.58,63.451 c 1.12,-2.088 2.66,-4.5 4.36,-6.66 1.51,-2.231 3.49,-5.292 4.96,-6.119 1.3,-0.864 2.96,0.216 3.17,1.151 0.18,0.864 -0.21,0.792 -2.01,4.068 -2.02,3.204 -6.84,12.888 -9.04,15.156 -2.16,1.943 -3.28,-0.973 -3.49,-2.341 -0.25,-1.331 0.9,-3.311 2.05,-5.255 z" />
	<path
   id="path33"
   style="fill-rule:evenodd;stroke:#000000;stroke-width:0.036;stroke-miterlimit:10"
   d="m 156.3,66.151 c 1.66,-1.548 4.18,-3.312 6.44,-4.752 2.2,-1.476 5.15,-3.78 6.77,-3.996 1.48,-0.359 2.67,1.296 2.59,2.196 -0.21,0.792 -0.54,0.756 -3.34,3.096 -2.92,2.412 -11.06,9.612 -13.72,11.052 -2.77,1.152 -2.66,-2.124 -2.45,-3.42 0.15,-1.369 1.98,-2.628 3.71,-4.176 z" />
	<path
   id="path35"
   style="fill-rule:evenodd;stroke:#000000;stroke-width:0.036;stroke-miterlimit:10"
   d="m 40.272,108.42 c -1.8,0.82 -3.24,1.76 -5.292,3.34 -2.16,1.48 -5.652,4.9 -7.416,5.84 -1.872,0.86 -4.068,0.93 -3.24,-0.62 0.828,-1.65 4.752,-6.44 8.028,-8.82 3.204,-2.48 8.892,-5.32 11.088,-5.61 2.088,-0.33 2.268,2.7 1.8,3.78 -0.539,0.9 -3.347,1.22 -4.968,2.09 z" />
	<path
   id="path37"
   style="fill-rule:evenodd;stroke:#000000;stroke-width:0.036;stroke-miterlimit:10"
   d="m 46.716,114.86 c -1.584,0.72 -2.808,1.55 -4.644,2.92 -1.872,1.36 -5.004,4.28 -6.48,5.14 -1.62,0.76 -3.6,0.76 -2.88,-0.54 0.72,-1.51 4.14,-5.61 7.056,-7.74 2.844,-2.12 7.704,-4.68 9.72,-4.89 1.8,-0.25 2.052,2.34 1.584,3.31 -0.612,0.79 -2.807,0.97 -4.356,1.8 z" />
	<path
   id="path39"
   style="fill-rule:evenodd;stroke:#000000;stroke-width:0.036;stroke-miterlimit:10"
   d="m 63.061,186.61 c -1.764,1.51 -4.176,3.24 -6.408,4.79 -2.268,1.47 -5.22,3.6 -6.768,3.99 -1.584,0.29 -2.772,-1.37 -2.592,-2.19 0.072,-0.9 0.396,-0.83 3.312,-3.1 2.88,-2.48 10.836,-9.79 13.716,-11.09 2.628,-1.26 2.664,2.05 2.484,3.42 -0.288,1.23 -2.089,2.67 -3.744,4.18 z" />
	<path
   id="path41"
   style="fill-rule:evenodd;stroke:#000000;stroke-width:0.036;stroke-miterlimit:10"
   d="m 299.58,172.14 c 2.56,6.37 10.76,9.07 18.29,6.01 7.56,-3.03 11.63,-10.66 9.07,-17.03 -2.59,-6.37 -10.76,-9.07 -18.32,-6.05 -7.56,3.06 -11.6,10.69 -9.04,17.07 z" />
	<path
   id="path43"
   style="fill:#ffffff;fill-rule:evenodd;stroke:#000000;stroke-width:0.036;stroke-miterlimit:10"
   d="m 306.64,164.65 c 0.68,1.73 2.95,2.45 5.04,1.62 2.08,-0.87 3.2,-2.92 2.52,-4.65 -0.69,-1.73 -2.96,-2.44 -5.04,-1.58 -2.09,0.83 -3.21,2.92 -2.52,4.61 z" />
	<path
   id="path45"
   style="fill-rule:evenodd;stroke:#000000;stroke-width:0.036;stroke-miterlimit:10"
   d="m 248.35,155.22 c 0.47,6.87 7.38,11.98 15.41,11.41 8.06,-0.54 14.22,-6.52 13.75,-13.4 -0.47,-6.84 -7.38,-11.95 -15.44,-11.41 -8.03,0.54 -14.19,6.56 -13.72,13.4 z" />
	<path
   id="path47"
   style="fill:#ffffff;fill-rule:evenodd;stroke:#000000;stroke-width:0.036;stroke-miterlimit:10"
   d="m 257.78,150.28 c 0.11,1.88 1.98,3.24 4.18,3.1 2.16,-0.14 3.82,-1.76 3.71,-3.64 -0.15,-1.83 -2.02,-3.2 -4.18,-3.06 -2.19,0.15 -3.85,1.77 -3.71,3.6 z" />
	<path
   id="path49"
   style="fill-rule:evenodd;stroke:#000000;stroke-width:0.036;stroke-miterlimit:10"
   d="m 118.03,130.34 c -0.75,-2.77 -1.33,-6.34 -1.73,-9.58 -0.43,-3.31 -1.33,-7.7 -0.75,-9.57 0.54,-1.87 2.73,-2.38 3.81,-1.66 0.83,0.51 0.58,0.94 1.62,5.33 1.05,4.43 4.68,17.21 4.68,20.99 -0.14,3.56 -3.81,1.73 -5.04,0.86 -1.36,-1.08 -1.9,-3.67 -2.59,-6.37 z" />
	<path
   id="path51"
   style="fill-rule:evenodd;stroke:#000000;stroke-width:0.036;stroke-miterlimit:10"
   d="m 110.51,137.18 c -1.33,-2.52 -2.74,-5.98 -3.82,-9 -1.11,-3.2 -2.99,-7.24 -2.84,-9.18 0.11,-2.02 2.19,-2.88 3.35,-2.45 0.9,0.36 0.75,0.72 2.77,4.82 2.09,4.07 8.35,15.74 9.21,19.44 0.62,3.46 -3.27,2.6 -4.71,1.98 -1.51,-0.75 -2.7,-3.13 -3.96,-5.61 z" />
	<path
   id="path53"
   style="fill-rule:evenodd;stroke:#000000;stroke-width:0.036;stroke-miterlimit:10"
   d="m 73.608,233.73 c -3.204,-1.73 -7.164,-4.43 -10.476,-6.69 -3.456,-2.42 -8.244,-5.48 -9.504,-7.38 -1.224,-2.02 0.396,-3.93 1.944,-4.07 1.368,-0.11 1.332,0.29 6.408,3.27 5.076,2.99 20.196,10.77 23.688,14.01 3.24,2.99 -1.872,4.14 -3.816,4.28 -2.123,0.07 -5.147,-1.76 -8.244,-3.42 z" />
	<path
   id="path55"
   style="fill-rule:evenodd;stroke:#000000;stroke-width:0.036;stroke-miterlimit:10"
   d="m 77.064,222.03 c -2.304,-1.26 -4.932,-3.09 -7.308,-4.68 -2.376,-1.73 -5.904,-3.81 -6.696,-5.15 -0.864,-1.4 0.288,-2.77 1.368,-2.84 0.9,-0.18 0.972,0.25 4.5,2.27 3.564,2.01 14.184,7.59 16.596,9.79 2.34,2.05 -1.368,2.92 -2.664,3.02 -1.403,0 -3.708,-1.26 -5.796,-2.41 z" />
	<path
   id="path57"
   style="fill-rule:evenodd;stroke:#000000;stroke-width:0.036;stroke-miterlimit:10"
   d="m 166.6,397.6 c -2.45,2.6 -5.69,6.09 -8.75,8.82 -3.1,2.67 -7.09,6.92 -9.22,7.74 -2.23,0.72 -3.74,-1.36 -3.56,-2.77 0.07,-1.44 0.61,-1.29 4.53,-5.54 3.93,-4.39 14.87,-17.61 18.69,-20.2 3.6,-2.7 3.71,2.63 3.38,4.61 -0.43,2.05 -2.77,4.5 -5.07,7.34 z" />
	<path
   id="path59"
   style="fill-rule:evenodd;stroke:#000000;stroke-width:0.036;stroke-miterlimit:10"
   d="m 155.9,391.74 c -1.72,1.94 -3.99,4.1 -6.12,6.19 -2.23,1.91 -4.89,4.79 -6.44,5.43 -1.55,0.58 -2.66,-1.04 -2.52,-1.94 0.04,-1.04 0.5,-0.9 3.2,-3.89 2.78,-3.17 10.37,-12.27 13.07,-14.15 2.45,-1.8 2.59,1.7 2.38,3.24 -0.29,1.37 -1.98,3.17 -3.57,5.12 z" />
	<path
   id="path61"
   style="fill-rule:evenodd;stroke:#000000;stroke-width:0.036;stroke-miterlimit:10"
   d="m 317.65,397.5 c 0.9,2.59 2.02,6.26 2.81,9.5 0.72,3.2 2.05,7.49 1.91,9.4 -0.33,1.72 -2.45,2.05 -3.31,1.4 -0.9,-0.61 -0.69,-1.08 -2.13,-5.29 -1.58,-4.47 -6.55,-17.21 -6.98,-20.74 -0.47,-3.63 3.17,-1.62 4.53,-0.61 1.19,0.97 2.2,3.6 3.17,6.34 z" />
	<path
   id="path63"
   style="fill-rule:evenodd;stroke:#000000;stroke-width:0.036;stroke-miterlimit:10"
   d="m 306.42,398.47 c 0.61,2.45 0.94,5.58 1.37,8.57 0.29,2.84 0.9,6.76 0.57,8.42 -0.5,1.51 -2.3,1.48 -3.02,0.86 -0.68,-0.68 -0.61,-1.01 -1.3,-4.86 -0.86,-4.17 -3.85,-15.66 -3.7,-18.9 0.03,-3.16 2.95,-1.04 4.03,0 0.93,1.05 1.44,3.39 2.05,5.91 z" />
	<path
   id="path65"
   style="fill-rule:evenodd;stroke:#000000;stroke-width:0.036;stroke-miterlimit:10"
   d="m 463.67,345.3 c 2.05,1.15 3.85,2.26 6.51,4.31 2.67,1.95 6.84,6.34 9.18,7.49 2.27,1.12 4.94,1.26 4.11,-0.68 -1.12,-2.09 -5.91,-8.1 -9.9,-11.23 -4,-3.21 -11.13,-6.88 -13.75,-7.27 -2.63,-0.44 -3.14,3.45 -2.34,4.71 0.57,1.19 4.06,1.48 6.19,2.67 z" />
	<path
   id="path67"
   style="fill-rule:evenodd;stroke:#000000;stroke-width:0.036;stroke-miterlimit:10"
   d="m 455.46,353.25 c 1.73,1.01 3.46,1.94 5.72,3.78 2.34,1.73 5.94,5.44 8.03,6.55 1.95,0.98 4.39,1.05 3.6,-0.61 -1.01,-1.94 -5.15,-7.02 -8.67,-9.83 -3.57,-2.84 -9.72,-5.94 -12.06,-6.37 -2.45,-0.43 -2.63,3.03 -2.06,4.14 0.51,0.97 3.57,1.33 5.44,2.34 z" />
	<path
   id="path69"
   style="fill-rule:evenodd;stroke:#000000;stroke-width:0.036;stroke-miterlimit:10"
   d="m 494.27,166.38 c 2.73,-0.94 6.26,-1.7 9.61,-2.27 3.13,-0.69 7.63,-1.69 9.47,-1.37 1.76,0.36 1.91,2.41 1.26,3.38 -0.79,0.87 -0.97,0.51 -5.4,1.84 -4.47,1.26 -17.57,5.51 -21.13,5.8 -3.6,0.14 -1.44,-3.32 -0.33,-4.54 1.08,-1.3 3.67,-2.02 6.52,-2.84 z" />
	<path
   id="path71"
   style="fill-rule:evenodd;stroke:#000000;stroke-width:0.036;stroke-miterlimit:10"
   d="m 494.56,177.68 c 2.48,-0.47 5.65,-0.72 8.67,-0.9 2.77,-0.18 6.88,-0.68 8.43,-0.11 1.36,0.51 1.47,2.31 0.72,3.06 -0.76,0.58 -0.98,0.4 -4.94,1.01 -4.06,0.61 -15.98,2.84 -19.08,2.66 -3.13,-0.28 -0.97,-3.06 0.22,-3.99 1.12,-0.97 3.38,-1.41 5.98,-1.73 z" />
	<path
   id="path73"
   style="fill-rule:evenodd;stroke:#000000;stroke-width:0.036;stroke-miterlimit:10"
   d="m 189.89,253.24 c -10.98,-1.9 -37.98,-2.26 -58.65,-4.96 -20.8,-2.85 -48.019,-8.93 -64.291,-11.6 -16.2,-2.8 -25.992,-4.24 -32.148,-4.32 -6.264,-0.03 -5.58,2.78 -4.608,3.96 0.972,1.05 2.376,1.16 10.584,2.67 8.208,1.47 22.392,3.53 38.088,6.3 15.732,2.73 38.235,7.52 55.005,9.93 16.56,2.27 33.23,3.17 43.74,3.96 10.33,0.69 16.13,1.26 18.22,0.36 2.05,-1.08 4.75,-4.42 -5.94,-6.3 z" />
	<path
   id="path75"
   style="fill-rule:evenodd;stroke:#000000;stroke-width:0.036;stroke-miterlimit:10"
   d="m 42.756,296.3 c 12.672,-1.58 25.812,-3.46 41.76,-6.3 15.984,-2.95 36.934,-8.14 52.994,-11.27 15.84,-3.31 32.25,-6.55 41.76,-7.92 9.25,-1.44 12.38,-1.19 14.25,-0.36 1.84,0.83 5.08,2.63 -3.31,4.97 -8.57,2.16 -31.07,5.08 -47.37,8.31 -16.38,3.17 -32.84,7.78 -50.044,10.91 -17.352,3.06 -38.376,5.4 -52.668,7.31 -14.292,1.8 -25.38,3.53 -32.148,3.64 -6.84,-0.04 -8.064,-2.34 -7.956,-3.32 0.108,-1.08 1.8,-1.69 8.964,-2.66 7.237,-1.08 20.989,-1.73 33.768,-3.31 z" />
	<path
   id="path77"
   style="fill-rule:evenodd;stroke:#000000;stroke-width:0.036;stroke-miterlimit:10"
   d="m 51.721,361.24 c 11.772,-6.12 37.908,-19.54 53.679,-27.5 15.55,-7.85 25.81,-12.78 39.09,-19.22 13.21,-6.56 31.07,-16.46 39.42,-19.55 8.1,-3.13 10.69,-0.9 9.29,1.01 -1.58,1.83 -6.37,4.28 -18.25,10.26 -12.13,6.01 -35.5,16.3 -52.99,25.2 -17.46,8.74 -34.743,18.39 -51.015,27.14 -16.524,8.75 -35.928,19.66 -46.404,24.52 -10.44,4.5 -14.004,4.03 -15.552,3.31 -1.548,-0.72 1.656,-4.39 6.264,-7.27 4.5,-2.96 14.4,-7.35 20.556,-10.26 6.084,-2.99 4.212,-1.88 15.912,-7.64 z" />
	<path
   id="path79"
   style="fill-rule:evenodd;stroke:#000000;stroke-width:0.036;stroke-miterlimit:10"
   d="m 382.56,229.56 c 10.44,-4 36.72,-9.36 56.63,-15.95 19.8,-6.81 43.02,-16.27 60.91,-23.55 17.64,-7.23 36.11,-16.66 44.57,-19.4 8.28,-2.74 5.97,1.66 5.29,3.02 -0.9,1.3 0.14,-0.03 -9.9,4.61 -10.22,4.61 -32.83,15.16 -50.04,22.47 -17.24,7.19 -36.29,14.61 -52.13,20.16 -15.98,5.43 -32.04,9.39 -42.19,12.16 -10.08,2.6 -15.69,4.32 -17.82,3.78 -2.23,-0.68 -5.58,-3.49 4.68,-7.3 z" />
	<path
   id="path81"
   style="fill-rule:evenodd;stroke:#000000;stroke-width:0.036;stroke-miterlimit:10"
   d="m 522.74,244.89 c -12.81,0.9 -26.02,1.95 -42.15,2.31 -16.24,0.25 -37.91,-0.36 -54.18,-0.29 -16.27,0 -32.98,0.18 -42.48,0.68 -9.5,0.51 -12.42,1.41 -14.04,2.56 -1.69,1.04 -4.54,3.74 4.25,4.21 8.92,0.32 31.24,-1.3 48.09,-1.51 16.67,-0.15 33.55,0.97 51.19,0.57 17.57,-0.61 38.6,-2.44 53.07,-3.56 14.22,-1.12 25.56,-1.73 32.22,-2.95 6.41,-1.37 7.52,-3.96 7.09,-4.86 -0.47,-0.97 -2.12,-1.23 -9.29,-0.76 -7.34,0.43 -21.06,2.56 -33.77,3.6 z" />
	<path
   id="path83"
   style="fill-rule:evenodd;stroke:#000000;stroke-width:0.036;stroke-miterlimit:10"
   d="m 510.97,293.49 c -12.85,-3.45 -41.33,-11.37 -58.21,-15.84 -16.96,-4.57 -31.54,-8.06 -42.19,-10.76 -10.55,-2.81 -16.13,-4.86 -21.02,-5.33 -5.15,-0.4 -10.7,1.26 -8.86,2.88 1.84,1.51 10.62,3.78 19.94,6.26 9.33,2.31 20.13,4.04 35.46,8.1 15.34,4.11 37.59,10.8 55.52,16.06 17.82,5.11 39.16,11.92 50.43,14.44 11.09,2.3 14.51,1 15.95,0 1.3,-1.12 -2.7,-3.86 -7.67,-5.84 -5.11,-2.01 -15.62,-4.14 -22.21,-5.79 -6.7,-1.8 -4.54,-0.79 -17.14,-4.18 z" />
	<path
   id="path85"
   style="fill-rule:evenodd;stroke:#000000;stroke-width:0.036;stroke-miterlimit:10"
   d="m 282.16,89.551 c 1.9,-1.62 3.45,-5.256 7.41,-8.677 3.78,-3.491 12.31,-8.747 15.59,-11.735 3.1,-2.916 3.64,-4.752 3.71,-5.796 -0.04,-1.188 -1.44,-2.017 -3.24,-1.116 -1.87,0.864 -5.04,3.672 -7.71,6.084 -2.88,2.304 -5.54,4.644 -8.53,7.416 -2.95,2.664 -7.2,5.868 -9,8.352 -1.83,2.448 -2.48,4.896 -2.09,5.94 0.26,0.9 1.91,0.972 3.86,-0.468 z" />
	<path
   id="path87"
   style="fill-rule:evenodd;stroke:#000000;stroke-width:0.036;stroke-miterlimit:10"
   d="m 275.14,86.923 c 1.08,-1.729 1.87,-5.04 4.32,-8.677 2.52,-3.708 8.2,-9.756 10.4,-12.888 1.98,-3.096 1.94,-4.607 1.84,-5.508 -0.22,-1.044 -1.55,-1.332 -2.88,-0.288 -1.44,1.116 -3.32,4.068 -5.08,6.624 -1.91,2.448 -3.6,4.932 -5.51,7.848 -1.94,2.736 -4.61,6.301 -5.65,8.748 -1.15,2.34 -0.9,4.572 -0.5,5.328 0.36,0.721 1.8,0.325 3.06,-1.187 z" />
	<path
   id="path89"
   style="fill-rule:evenodd;stroke:#000000;stroke-width:0.036;stroke-miterlimit:10"
   d="m 242.16,93.871 c -1.4,-1.224 -3.17,-6.012 -5.15,-8.676 -2.05,-2.771 -4.21,-5.076 -6.91,-6.912 -2.88,-1.8 -7.67,-2.808 -9.5,-3.852 -1.84,-1.188 -1.8,-2.34 -1.44,-3.061 0.18,-0.828 1,-1.872 2.91,-1.584 1.95,0.217 5.15,0.576 8.5,3.024 3.31,2.376 8.06,7.596 10.76,10.944 2.52,3.132 3.96,6.264 4.18,8.027 0.11,1.766 -1.98,3.062 -3.35,2.09 z" />
	<path
   id="path91"
   style="fill-rule:evenodd;stroke:#000000;stroke-width:0.036;stroke-miterlimit:10"
   d="m 251.3,89.047 c -1.47,-1.729 -3.99,-7.524 -5.47,-11.557 -1.62,-4.032 -3.24,-10.151 -3.35,-12.527 -0.07,-2.557 1.91,-2.881 2.88,-2.089 0.83,0.721 1.16,3.708 2.24,6.732 1.04,2.916 2.66,8.136 3.88,11.088 1.01,2.772 2.42,4.716 2.42,6.12 -0.18,1.441 -1.23,3.673 -2.6,2.233 z" />
	<path
   id="path93"
   style="fill-rule:evenodd;stroke:#000000;stroke-width:0.036;stroke-miterlimit:10"
   d="m 262.9,85.195 c -0.62,-0.504 -1.26,-2.304 -0.98,-4.824 0.18,-2.628 1.16,-7.02 2.24,-10.115 1,-3.168 2.95,-5.437 3.88,-8.353 0.8,-3.023 0.29,-6.408 1.26,-9.18 0.94,-2.844 3.17,-6.264 4.36,-7.2 1.12,-0.828 2.23,0.18 2.23,1.764 -0.18,1.404 -2.16,4.104 -2.88,6.732 -0.86,2.484 -0.75,5.508 -1.76,8.676 -1.05,3.204 -3.28,7.524 -4.18,10.44 -0.97,2.664 -1.26,4.716 -1.44,6.3 -0.18,1.548 0.29,2.16 0,3.204 -0.5,1.044 -2.16,2.772 -2.73,2.556 z" />
	<path
   id="path95"
   style="fill-rule:evenodd;stroke:#000000;stroke-width:0.036;stroke-miterlimit:10"
   d="m 283.85,258.79 c -5.19,-1.62 -10.05,-3.24 -15.12,-5.4 -5.08,-2.09 -9.94,-3.46 -14.98,-7.17 -5.18,-3.88 -12.06,-9.79 -15.62,-15.62 -3.64,-5.98 -7.38,-14.47 -5.83,-19.51 1.51,-5.15 6.91,-11.02 14.94,-10.41 8.06,0.72 24.04,13.32 32.54,14.33 8.21,0.83 10.66,-6.19 16.92,-9.11 6.16,-2.98 14.87,-9.5 20.16,-8.46 5.22,1.01 10.33,8.18 11.05,14.3 0.51,6.01 -3.63,14.61 -7.13,21.49 -3.56,6.69 -8.49,14.65 -13.68,18.86 -5.29,4.14 -11.16,6.09 -17.74,5.98 0.07,9.03 0.86,17.31 2.37,25.41 1.44,8 2.95,15.56 6.48,22.54 3.42,6.98 9.65,13.9 14.4,18.94 4.68,4.86 8.39,8.1 13.9,10.29 5.51,2.13 13.28,3.06 19.15,2.38 5.69,-0.87 9.83,-3.13 15.34,-6.95 5.47,-3.89 13.89,-13.32 17.49,-15.8 3.35,-2.52 4.32,-0.72 3.6,0.97 -0.72,1.62 -3.71,5.22 -7.41,8.85 -3.78,3.5 -8.46,8.93 -14.87,11.99 -6.55,2.95 -15.95,5.76 -23.47,5.51 -7.71,-0.43 -15.41,-3.67 -21.6,-7.92 -6.3,-4.36 -11.2,-12.38 -15.09,-17.71 -3.81,-5.4 -6.37,-10.15 -7.67,-14.4 -1,7.88 -2.88,15.19 -6.01,22.07 -3.13,6.76 -7.56,14.5 -12.45,18.93 -5.01,4.36 -10.98,6.55 -17.25,7.42 -6.41,0.79 -13.93,-0.76 -20.63,-2.41 -6.87,-1.84 -13.71,-4.54 -19.4,-7.67 -5.8,-3.13 -11.88,-8.21 -14.36,-10.77 -2.52,-2.7 -1.12,-4.57 -0.26,-4.78 0.83,-0.26 2.67,1.58 5.51,3.56 2.74,1.94 6.55,5.11 11.02,7.7 4.43,2.52 8.96,5.12 15.12,6.95 6.12,1.62 14.83,3.57 20.84,3.35 5.76,-0.25 9.79,-1.8 13.9,-4.79 3.99,-2.99 7.23,-6.51 10.55,-12.96 3.34,-6.62 7.45,-18.75 9.1,-26.13 1.48,-7.46 0.36,-12.28 0,-18.22 -0.5,-6.08 -1.98,-13.21 -2.63,-17.5 -0.64,-4.28 -1.04,-6.94 -1.18,-8.13 z" />
	<path
   id="path97"
   style="fill:#ffffff;fill-rule:evenodd;stroke:#000000;stroke-width:0.036;stroke-miterlimit:10"
   d="m 285.32,218.5 c 0,0.87 0.87,1.55 1.95,1.55 1.04,0 1.91,-0.68 1.91,-1.55 0,-0.9 -0.87,-1.58 -1.91,-1.58 -1.08,0 -1.95,0.68 -1.95,1.58 z" />
	<path
   id="path99"
   style="fill:#ffffff;fill-rule:evenodd;stroke:#000000;stroke-width:0.036;stroke-miterlimit:10"
   d="m 319.7,208.78 c 0,0.87 0.87,1.55 1.95,1.55 1.04,0 1.91,-0.68 1.91,-1.55 0,-0.9 -0.87,-1.58 -1.91,-1.58 -1.08,0 -1.95,0.68 -1.95,1.58 z" />
	<path
   id="path101"
   style="fill:#ffffff;fill-rule:evenodd;stroke:#000000;stroke-width:0.036;stroke-miterlimit:10"
   d="m 285.83,252.2 c 0,0.9 0.86,1.58 1.91,1.58 1.04,0 1.9,-0.68 1.9,-1.58 0,-0.86 -0.86,-1.55 -1.9,-1.55 -1.05,0 -1.91,0.69 -1.91,1.55 z" />
	<path
   id="path103"
   style="fill:#ffffff;fill-rule:evenodd;stroke:#000000;stroke-width:0.036;stroke-miterlimit:10"
   d="m 250.84,238.41 c 0,0.87 0.86,1.59 1.9,1.59 1.05,0 1.91,-0.72 1.91,-1.59 0,-0.86 -0.86,-1.58 -1.91,-1.58 -1.04,0 -1.9,0.72 -1.9,1.58 z" />
	<path
   id="path105"
   style="fill:#ffffff;fill-rule:evenodd;stroke:#000000;stroke-width:0.036;stroke-miterlimit:10"
   d="m 308.29,205.54 c -1.83,0.54 -3.35,1.01 -4.93,1.8 -1.69,0.69 -3.17,1.41 -4.86,2.45 -1.8,0.97 -4,2.31 -5.33,3.42 -1.4,0.97 -2.3,1.94 -2.55,2.63 -0.18,0.68 0.46,1.12 1.11,1.3 0.36,0 0.69,-0.08 1.95,-0.9 1.33,-1.01 3.74,-3.06 5.86,-4.22 2.02,-1.15 4.07,-2.12 6.16,-2.77 1.98,-0.68 3.64,-1.08 5.65,-1.33 1.98,-0.47 4.43,-0.47 5.69,-0.97 1.01,-0.65 1.33,-1.77 0.83,-2.23 -0.54,-0.51 -2.23,-0.47 -3.82,-0.29 -1.65,0.07 -4.03,0.57 -5.76,1.11 z" />
	<path
   id="path107"
   style="fill:#ffffff;fill-rule:evenodd;stroke:#000000;stroke-width:0.036;stroke-miterlimit:10"
   d="m 270.64,250.62 c -1.8,-0.51 -2.2,-0.4 -3.42,-0.8 -1.34,-0.54 -3.14,-1.69 -4.29,-2.34 -1.26,-0.79 -1.62,-1.69 -2.88,-2.26 -1.33,-0.69 -3.89,-1.05 -4.75,-1.62 -0.97,-0.76 -1.3,-1.88 -0.54,-2.24 0.72,-0.36 3.31,-0.25 4.86,0.33 1.33,0.43 2.52,1.62 3.71,2.45 1.22,0.75 2.23,1.72 3.56,2.37 1.19,0.47 2.09,0.51 3.96,0.94 1.84,0.47 5.29,0.86 7.31,1.58 1.91,0.54 3.82,1.44 4.46,2.13 0.58,0.61 -0.25,1.76 -0.93,2.05 -0.87,0.21 -1.95,-0.07 -3.78,-0.47 -1.95,-0.61 -5.47,-1.55 -7.27,-2.12 z" />
	<path
   id="path109"
   style="fill:#ffffff;fill-rule:evenodd;stroke:#000000;stroke-width:0.036;stroke-miterlimit:10"
   d="m 267.76,155.58 c 0.07,0.86 0.97,1.54 2.01,1.47 1.05,-0.07 1.84,-0.86 1.77,-1.73 -0.08,-0.9 -0.94,-1.58 -2.02,-1.51 -1.04,0.07 -1.84,0.87 -1.76,1.77 z" />
	<path
   id="path111"
   style="fill:#ffffff;fill-rule:evenodd;stroke:#000000;stroke-width:0.036;stroke-miterlimit:10"
   d="m 266.5,160.36 c 0.07,0.8 0.86,1.41 1.8,1.34 0.93,-0.08 1.65,-0.76 1.62,-1.55 -0.08,-0.79 -0.87,-1.41 -1.8,-1.33 -0.98,0.07 -1.66,0.75 -1.62,1.54 z" />
	<path
   id="path113"
   style="fill:#ffffff;fill-rule:evenodd;stroke:#000000;stroke-width:0.036;stroke-miterlimit:10"
   d="m 316.43,170.3 c 0.03,0.68 0.75,1.22 1.58,1.19 0.87,-0.07 1.48,-0.69 1.44,-1.41 -0.03,-0.72 -0.75,-1.22 -1.58,-1.18 -0.87,0.07 -1.48,0.68 -1.44,1.4 z" />
	<path
   id="path115"
   style="fill:#ffffff;fill-rule:evenodd;stroke:#000000;stroke-width:0.036;stroke-miterlimit:10"
   d="m 319.13,165.08 c 0.07,0.97 1.04,1.69 2.23,1.62 1.15,-0.07 2.02,-0.94 1.94,-1.91 -0.07,-0.97 -1.04,-1.69 -2.19,-1.62 -1.15,0.07 -2.05,0.94 -1.98,1.91 z" />
	<path
   id="path117"
   style="fill-rule:evenodd;stroke:#000000;stroke-width:0.036;stroke-miterlimit:10"
   d="m 224.3,267.1 c 0.08,1.16 1.23,2.02 2.6,1.91 1.36,-0.07 2.41,-1.11 2.34,-2.27 -0.11,-1.15 -1.26,-2.01 -2.63,-1.9 -1.37,0.07 -2.41,1.08 -2.31,2.26 z" />
	<path
   id="path119"
   style="fill-rule:evenodd;stroke:#000000;stroke-width:0.036;stroke-miterlimit:10"
   d="m 215.41,288.56 c 0.07,1.15 1.23,2.02 2.59,1.94 1.37,-0.1 2.42,-1.11 2.34,-2.27 -0.07,-1.15 -1.26,-2.01 -2.62,-1.94 -1.34,0.11 -2.38,1.12 -2.31,2.27 z" />
	<path
   id="path121"
   style="fill-rule:evenodd;stroke:#000000;stroke-width:0.036;stroke-miterlimit:10"
   d="m 212.06,312.03 c 0.08,1.15 1.23,2.02 2.6,1.95 1.36,-0.11 2.41,-1.12 2.34,-2.27 -0.08,-1.15 -1.26,-2.02 -2.63,-1.95 -1.37,0.11 -2.38,1.12 -2.31,2.27 z" />
	<path
   id="path123"
   style="fill-rule:evenodd;stroke:#000000;stroke-width:0.036;stroke-miterlimit:10"
   d="m 244.93,313.18 c 0.07,1.16 1.26,2.02 2.63,1.95 1.33,-0.11 2.38,-1.12 2.3,-2.27 -0.07,-1.15 -1.26,-2.02 -2.59,-1.94 -1.37,0.1 -2.41,1.11 -2.34,2.26 z" />
	<path
   id="path125"
   style="fill-rule:evenodd;stroke:#000000;stroke-width:0.036;stroke-miterlimit:10"
   d="m 257.21,285.9 c 0.07,1.18 1.26,2.05 2.63,1.94 1.36,-0.11 2.37,-1.12 2.3,-2.27 -0.07,-1.15 -1.22,-2.02 -2.59,-1.94 -1.37,0.11 -2.41,1.11 -2.34,2.27 z" />
	<path
   id="path127"
   style="fill-rule:evenodd;stroke:#000000;stroke-width:0.036;stroke-miterlimit:10"
   d="m 307.86,278.8 c 0.07,1.16 1.26,2.02 2.63,1.91 1.33,-0.07 2.37,-1.11 2.3,-2.27 -0.07,-1.15 -1.26,-2.01 -2.59,-1.9 -1.37,0.07 -2.41,1.08 -2.34,2.26 z" />
	<path
   id="path129"
   style="fill-rule:evenodd;stroke:#000000;stroke-width:0.036;stroke-miterlimit:10"
   d="m 346.85,278.59 c 0.07,1.15 1.22,2.01 2.59,1.94 1.37,-0.11 2.41,-1.11 2.34,-2.27 -0.07,-1.15 -1.26,-2.01 -2.63,-1.94 -1.37,0.11 -2.37,1.12 -2.3,2.27 z" />
	<path
   id="path131"
   style="fill-rule:evenodd;stroke:#000000;stroke-width:0.036;stroke-miterlimit:10"
   d="m 346.13,307.75 c 0.07,1.15 1.22,2.01 2.59,1.94 1.37,-0.11 2.41,-1.11 2.34,-2.27 -0.07,-1.15 -1.26,-2.01 -2.63,-1.94 -1.37,0.11 -2.37,1.12 -2.3,2.27 z" />
	<path
   id="path133"
   style="fill-rule:evenodd;stroke:#000000;stroke-width:0.036;stroke-miterlimit:10"
   d="m 318.55,304.44 c 0.07,1.15 1.23,2.01 2.59,1.9 1.37,-0.07 2.42,-1.08 2.34,-2.27 -0.07,-1.15 -1.26,-2.01 -2.62,-1.9 -1.37,0.07 -2.38,1.11 -2.31,2.27 z" />
	<path
   id="path135"
   style="fill-rule:evenodd;stroke:#000000;stroke-width:0.036;stroke-miterlimit:10"
   d="m 333.02,254.5 c 0.08,1.15 1.23,2.02 2.6,1.95 1.36,-0.11 2.41,-1.12 2.34,-2.27 -0.11,-1.15 -1.26,-2.02 -2.63,-1.95 -1.37,0.11 -2.41,1.12 -2.31,2.27 z" />
	<path
   id="path137"
   style="fill-rule:evenodd;stroke:#000000;stroke-width:0.036;stroke-miterlimit:10"
   d="m 220.6,146.04 c 3.99,-3.28 11.41,-7.35 17.53,-10.41 6.05,-3.09 14.76,-7.13 18.21,-7.81 3.35,-0.72 4.22,0.83 1.34,3.24 -3.14,2.27 -12.42,6.44 -19.55,10.44 -7.35,3.89 -20.38,12.2 -23.4,12.99 -2.92,0.69 1.91,-5.32 5.87,-8.45 z" />
	<path
   id="path139"
   style="fill-rule:evenodd;stroke:#000000;stroke-width:0.036;stroke-miterlimit:10"
   d="m 315.35,135.63 c 4.64,2.13 11.63,6.84 17.21,10.94 5.43,3.96 12.92,10.01 15.22,12.71 2.13,2.59 1.08,4.21 -2.3,2.63 -3.53,-1.76 -11.38,-8.03 -18.14,-12.67 -6.81,-4.75 -20.16,-12.67 -22.18,-15.01 -1.91,-2.31 5.47,-0.72 10.19,1.4 z" />
	<path
   id="path141"
   style="fill-rule:evenodd;stroke:#000000;stroke-width:0.036;stroke-miterlimit:10"
   d="m 433.46,104.89 c 0.9,-2.67 2.52,-6.051 4.04,-8.896 1.47,-2.952 3.27,-7.056 4.86,-8.279 1.51,-1.368 3.56,-0.181 4.06,0.792 0.33,0.899 -0.1,1.151 -1.69,5.327 -1.69,4.248 -6.01,16.816 -8.1,19.906 -2.16,2.81 -4.21,-0.64 -4.64,-2.16 -0.54,-1.54 0.47,-4.1 1.47,-6.69 z" />
	<path
   id="path143"
   style="fill-rule:evenodd;stroke:#000000;stroke-width:0.036;stroke-miterlimit:10"
   d="m 423.42,106.22 c 0.36,-2.85 1.01,-6.409 1.94,-9.577 0.72,-3.24 1.7,-7.632 2.92,-9.145 1.26,-1.584 3.38,-1.079 4.14,-0.144 0.58,0.864 0.14,1.044 -0.47,5.544 -0.68,4.572 -2.12,17.712 -3.49,21.242 -1.48,3.24 -4.21,0.29 -5,-1.08 -0.83,-1.48 -0.47,-4.03 -0.04,-6.84 z" />
</g>
<metadata
   id="metadata72"><rdf:RDF><cc:Work><dc:format>image/svg+xml</dc:format><dc:type
         rdf:resource="http://purl.org/dc/dcmitype/StillImage" /><cc:license
         rdf:resource="http://creativecommons.org/publicdomain/zero/1.0/" /><dc:publisher><cc:Agent
           rdf:about="http://openclipart.org/"><dc:title>Openclipart</dc:title></cc:Agent></dc:publisher><dc:title>Cartoon Cat Face</dc:title><dc:date>2006-10-17T12:57:44</dc:date><dc:description>Uploaded by &quot;World Label&quot; for conversion to SVG and publication on OCAL.</dc:description><dc:source>https://openclipart.org/detail/709/cartoon-cat-face-by-gerald_g-709</dc:source><dc:creator><cc:Agent><dc:title>Gerald_G</dc:title></cc:Agent></dc:creator><dc:subject><rdf:Bag><rdf:li>animal</rdf:li><rdf:li>cartoon</rdf:li><rdf:li>cat</rdf:li><rdf:li>externalsource</rdf:li><rdf:li>outline</rdf:li><rdf:li>worldlabel</rdf:li></rdf:Bag></dc:subject></cc:Work><cc:License
       rdf:about="http://creativecommons.org/publicdomain/zero/1.0/"><cc:permits
         rdf:resource="http://creativecommons.org/ns#Reproduction" /><cc:permits
         rdf:resource="http://creativecommons.org/ns#Distribution" /><cc:permits
         rdf:resource="http://creativecommons.org/ns#DerivativeWorks" /></cc:License></rdf:RDF></metadata></svg>
