<?xml version="1.0" encoding="UTF-8" standalone="no"?>
<svg
   xmlns:dc="http://purl.org/dc/elements/1.1/"
   xmlns:cc="http://creativecommons.org/ns#"
   xmlns:rdf="http://www.w3.org/1999/02/22-rdf-syntax-ns#"
   xmlns:svg="http://www.w3.org/2000/svg"
   xmlns="http://www.w3.org/2000/svg"
   xmlns:sodipodi="http://sodipodi.sourceforge.net/DTD/sodipodi-0.dtd"
   xmlns:inkscape="http://www.inkscape.org/namespaces/inkscape"
   id="Layer_1"
   sodipodi:docname="perfil-alex.svg"
   xml:space="preserve"
   version="1.0"
   inkscape:version="1.0.2 (e86c870879, 2021-01-15)"
   viewBox="0 0 60 59.999999"
   width="60"
   height="60"><sodipodi:namedview
   id="namedview37"
   bordercolor="#666666"
   inkscape:pageshadow="2"
   guidetolerance="10"
   pagecolor="#ffffff"
   gridtolerance="10"
   inkscape:window-maximized="0"
   inkscape:zoom="8"
   objecttolerance="10"
   borderopacity="1"
   inkscape:current-layer="Layer_1"
   inkscape:cx="34.561672"
   inkscape:cy="44.400155"
   inkscape:window-y="19"
   inkscape:window-x="0"
   inkscape:window-width="1918"
   showgrid="false"
   inkscape:pageopacity="0"
   inkscape:window-height="1059"
   inkscape:document-rotation="0" /><defs
   id="defs118"><filter
     id="filter3349"
     width="1.8181"
     y="-0.45765999"
     x="-0.40906999"
     height="1.9153"
     color-interpolation-filters="sRGB"><feGaussianBlur
       id="feGaussianBlur3351"
       stdDeviation="3.85137"
       inkscape:collect="always" /></filter></defs>
<rect
   style="fill:#ffaacc;stroke-width:0.101434"
   id="rect619"
   width="59.847336"
   height="59.844055"
   x="0.1745919"
   y="0.16938898" /><g
   id="g3353"
   transform="matrix(0.12050264,0,0,0.12050264,6.6105781,3.8873527)"><path
     id="path5"
     style="fill-rule:evenodd;stroke:#000000;stroke-width:0.036;stroke-miterlimit:10"
     inkscape:connector-curvature="0"
     d="m 80.558,67.686 c -4.106,-1.661 -7.06,-3.322 -8.859,-5.491 -1.661,-2.215 -2.907,-4.384 -1.799,-7.244 1.338,-3.092 4.891,-7.752 8.721,-10.06 3.968,-2.26 10.151,-2.999 14.258,-2.906 4.199,0.092 7.66,1.292 10.198,3.229 2.63,1.8 4.521,4.383 5.491,7.752 5.306,-1.616 10.197,-1.985 15.365,-1.292 5.214,0.785 12.228,4.707 15.181,5.538 2.999,0.507 2.445,-0.231 2.26,-1.477 0,-1.246 -0.738,-4.153 -2.722,-5.675 -1.892,-1.661 -4.983,-2.999 -9.09,-4.014 3.23,-1.754 6.367,-2.077 9.413,-0.97 3.138,1.062 6.875,4.661 8.906,7.245 2.169,2.492 2.63,6.506 3.691,7.614 1.338,0.923 2.307,-0.139 3.092,-1.938 0.784,-1.984 1.569,-6.183 1.292,-9.228 -0.23,-3.138 -0.922,-6.137 -2.445,-9.183 3.275,2.953 5.213,6.229 5.813,9.828 0.646,3.507 -2.307,10.243 -1.938,11.489 0.6,1.062 2.215,-0.554 5.029,-4.845 -1.661,3.738 -2.261,6.23 -1.799,7.291 0.646,0.923 3.229,0.646 4.706,-0.831 1.477,-1.615 3.553,-5.306 3.737,-7.89 0.277,-2.538 -0.646,-5.03 -2.584,-7.291 3.23,1.938 4.938,4.153 5.491,6.46 0.508,2.26 -1.385,5.398 -2.445,7.429 -0.969,1.938 -2.215,3.23 -3.554,4.061 2.446,1.246 4.107,2.86 5.169,4.661 1.153,1.753 1.522,3.875 1.291,6.183 1.801,0.785 3.092,1.522 4.061,2.399 0.97,0.784 1.569,1.708 1.801,2.584 5.675,-2.215 11.166,-3.506 16.473,-3.692 5.628,-0.23 10.891,-0.6 15.549,2.261 4.339,2.769 8.121,7.383 10.982,14.212 3.6,0.231 6.552,1.154 9.368,3.323 2.721,2.03 4.981,4.937 6.781,8.905 1.614,3.83 3.645,8.998 3.092,14.073 -0.691,4.983 -2.538,12.644 -6.782,15.688 -4.431,2.861 -13.242,3.276 -18.595,1.615 -5.445,-1.799 -10.291,-7.336 -13.105,-11.812 -2.676,-4.614 -3.507,-10.936 -3.737,-15.042 -0.323,-4.153 0.554,-7.06 2.123,-9.229 -2.123,-2.353 -4.339,-3.969 -6.829,-4.66 -2.401,-0.785 -4.984,-0.785 -7.753,0 4.43,1.984 6.368,5.953 6.32,12.089 0,6.137 -5.997,17.442 -6.966,24.456 -0.877,6.783 -0.277,12.274 1.614,16.473 5.768,0.369 11.167,2.261 16.012,5.491 4.892,3.275 10.15,8.859 13.29,14.073 3.044,5.029 4.477,10.243 4.659,16.011 l -2.075,-1.984 c 0.969,3.875 0.738,7.429 -0.509,10.843 -1.384,3.276 -3.737,6.691 -7.428,9.552 -3.83,2.861 -8.769,5.398 -15.183,7.613 8.354,-1.938 13.799,-1.984 16.151,-0.323 2.306,1.707 -2.908,7.291 -1.939,10.336 0.879,2.769 8.398,2.769 7.43,7.105 -1.062,4.291 -5.582,10.66 -13.751,18.918 2.493,6.367 5.723,12.228 9.876,18.088 4.061,5.814 8.259,11.489 14.72,16.519 6.459,4.753 16.287,8.676 23.439,12.46 6.967,3.599 13.243,5.629 18.135,9.828 4.613,4.198 7.705,10.935 10.011,15.227 2.309,4.107 3.277,7.336 3.415,9.689 3.83,-3.368 5.768,-7.013 5.815,-11.489 -0.048,-4.476 -1.756,-9.967 -5.815,-15.043 -4.384,-5.075 -13.288,-9.597 -19.241,-15.503 -6.043,-6.091 -12.688,-12.874 -16.194,-20.857 -3.601,-8.121 -4.984,-17.072 -4.662,-27.362 0.694,2.908 1.154,4.845 1.753,6.506 0.415,1.477 0.971,2.4 1.294,2.583 1.244,-6.874 3.137,-13.104 5.676,-18.872 2.583,-5.953 6.413,-11.72 9.55,-15.689 3.047,-4.014 5.723,-6.367 8.399,-7.613 -2.861,7.66 -3.555,14.996 -2.261,22.194 1.244,7.152 6.136,15.828 9.873,20.857 3.553,4.983 7.431,7.936 11.629,9.043 l -1.154,-3.368 c 6.922,2.906 12.689,5.584 17.488,8.214 4.659,2.537 7.844,4.845 10.982,7.29 3.044,2.308 5.583,4.568 7.613,6.782 -0.138,-1.753 -0.461,-3.321 -0.784,-4.337 -0.37,-1.062 -0.738,-1.938 -1.294,-2.261 4.293,3.646 7.567,8.168 10.014,14.073 2.445,5.814 4.431,12.92 4.523,20.58 -0.048,7.566 -1.247,16.658 -5.032,24.225 -4.198,7.291 -10.563,16.474 -18.732,19.888 -8.166,3.229 -17.856,3.184 -29.623,-0.139 -1.062,6.184 -3.276,11.628 -6.461,16.519 -3.274,4.846 -7.521,9.091 -12.92,12.736 2.446,2.03 3.14,4.152 2.078,6.367 -1.109,2.123 -3.185,4.753 -8.907,6.644 -6.043,1.708 -15.779,4.292 -26.346,4.199 -10.659,-0.184 -22.656,-1.8 -36.729,-5.029 -6.646,2.953 -13.382,4.568 -20.212,4.846 -6.921,0.23 -13.565,-1.015 -20.671,-3.554 -0.23,1.108 -1.476,1.661 -3.737,1.154 -2.307,-0.508 -6.968,-0.969 -9.69,-3.877 -2.583,-3.183 -4.245,-7.751 -5.491,-14.396 -0.461,-0.046 -1.338,-0.277 -2.123,-0.508 -0.784,-0.323 -1.753,-0.692 -2.907,-1.108 -6.044,-0.736 -10.29,-2.03 -13.612,-4.06 -3,-2.168 -4.476,-5.168 -5.307,-7.937 -0.784,-2.722 -0.738,-5.354 0.323,-8.075 -2.354,0.738 -3.369,0.092 -3.553,-2.122 -0.046,-2.399 1.385,-7.707 3.045,-11.12 1.799,-3.369 3.922,-6.829 7.798,-8.768 4.245,-2.077 11.351,-3.322 16.334,-3.046 4.938,0.186 9.413,1.754 13.243,4.522 2.63,-0.646 4.891,-2.307 6.783,-5.168 1.984,-2.953 3.415,-8.951 4.845,-12.136 1.615,-3.229 2.953,-5.491 4.384,-6.967 -0.6,-1.8 -1.154,-3.646 -1.477,-5.537 -0.323,-1.938 -0.415,-3.877 -0.462,-5.998 l -2.445,2.121 c -0.877,-2.813 -1.477,-5.675 -1.43,-8.397 -0.046,-2.723 0.553,-5.491 1.43,-8.121 l -2.261,-1.938 c 0.092,-2.769 0.738,-5.398 2.122,-8.076 1.431,-2.676 4.892,-4.844 6.138,-7.936 1.384,-3.322 1.799,-6.922 1.614,-11.305 -3.922,-0.922 -6.229,-2.491 -7.429,-4.521 -1.015,-2.309 1.984,-5.122 0.784,-8.076 -1.153,-2.953 -7.291,-6.92 -7.752,-9.228 -0.276,-2.399 3.738,-3.184 5.999,-4.845 2.354,-1.8 4.938,-3.461 7.752,-5.352 -5.722,-2.539 -11.213,-4.431 -16.473,-5.491 -5.214,-1.154 -10.659,-1.062 -14.904,-1.154 -4.153,-0.185 -7.429,-0.185 -10.013,0.185 -1.476,2.538 -4.707,4.431 -9.875,5.86 -5.167,1.338 -13.243,3.507 -21.041,2.262 -7.66,-1.569 -18.088,-5.03 -24.548,-10.382 -6.321,-5.538 -11.12,-14.536 -12.966,-21.318 -1.661,-6.69 -0.738,-12.828 2.769,-18.595 -4.014,-3.876 -5.629,-8.352 -4.845,-13.612 0.969,-5.398 5.86,-13.704 9.69,-17.949 3.968,-4.383 9.689,-6.275 13.243,-7.613 3.553,-1.431 6.321,-1.523 8.121,-0.461 l 4.66,-4.199 c 2.492,-5.953 4.338,-12.597 5.353,-20.118 1.107,-7.567 1.43,-15.688 0.969,-24.732 -4.153,3.968 -7.383,7.844 -9.69,12.135 -2.077,4.153 -2.954,11.489 -3.876,12.92 -0.831,1.338 -1.661,-1.338 -1.799,-4.844 -0.139,-3.738 -0.646,-11.951 0.969,-16.98 1.799,-5.215 4.707,-9.46 9.228,-13.428 L 85.91,71.238 c -2.261,1.846 -4.292,4.199 -6.46,7.244 -2.123,3 -4.061,6.506 -5.998,10.705 1.568,-6.137 2.86,-10.75 4.06,-14.396 1.201,-3.644 2.216,-5.952 3.046,-7.105 z m 119.97,284.38 c 1.614,1.476 3.737,3.184 6.551,4.937 2.769,1.661 6.184,3.554 10.244,5.491 l 0.186,2.354 c -2.816,-2.076 -6.231,-3.045 -10.244,-3.275 -4.153,-0.14 -8.491,0.46 -13.844,2.168 2.354,-2.999 3.875,-5.307 5.122,-7.29 1.246,-2.032 1.844,-3.37 1.985,-4.385 z" /><path
     id="path7"
     style="fill:#c87137;fill-rule:evenodd;stroke:#000000;stroke-width:0.036;stroke-miterlimit:10"
     inkscape:connector-curvature="0"
     d="m 83.742,64.917 c 2.307,-2.307 5.352,-4.199 9.136,-6.183 3.831,-1.984 8.398,-3.692 13.704,-5.307 -2.26,-4.107 -5.121,-6.552 -8.767,-8.029 -3.461,-1.477 -8.721,-1.246 -12.597,-0.369 -3.783,0.784 -8.259,2.906 -10.566,5.121 -2.215,2.123 -3.323,5.445 -2.954,7.66 0.554,2.03 3.691,3.738 5.675,4.938 2.032,1.108 4.154,1.892 6.369,2.169 z" /><path
     id="path9"
     style="fill:#c87137;fill-rule:evenodd;stroke:#000000;stroke-width:0.036;stroke-miterlimit:10"
     inkscape:connector-curvature="0"
     d="m 88.31,69.854 c 0.738,-1.523 2.261,-2.63 4.568,-3.83 2.446,-1.2 5.676,-2.169 9.69,-3.092 -2.722,0.508 -4.799,1.292 -6.414,2.169 -1.477,0.876 -2.446,1.845 -2.907,3.091 1.153,-0.831 2.491,-1.615 3.829,-1.984 1.338,-0.416 2.861,-0.785 4.384,-0.738 -2.907,1.707 -5.03,3.045 -6.553,4.014 -1.384,0.923 -2.122,1.477 -2.215,1.662 -1.429,-0.415 -2.905,-0.83 -4.382,-1.292 z" /><path
     id="path11"
     style="fill:#c87137;fill-rule:evenodd;stroke:#000000;stroke-width:0.036;stroke-miterlimit:10"
     inkscape:connector-curvature="0"
     d="m 79.912,74.422 c 0.646,-3.553 2.907,-6.552 6.599,-9.505 3.876,-3.045 10.474,-5.952 15.873,-7.844 5.63,-1.938 11.351,-3.322 16.796,-3.275 5.398,0 11.397,1.984 15.32,3.46 3.922,1.292 7.013,5.076 8.397,4.568 1.569,-0.692 1.615,-5.86 0.692,-8.213 -0.876,-2.491 -2.629,-4.43 -5.629,-6.183 3.369,1.384 5.86,2.953 7.475,4.891 1.615,1.984 1.569,4.246 2.538,6.414 1.246,1.984 2.769,4.568 4.015,5.26 1.2,0.508 2.353,-0.093 3.276,-1.984 0.369,1.846 0.738,2.769 1.292,3.276 0.554,0.276 1.106,0.138 1.846,-0.923 -0.047,1.522 0.369,2.445 1.245,2.768 0.923,0.231 2.261,0.046 4.199,-0.922 2.307,1.43 3.83,2.953 4.753,4.753 0.969,1.846 1.338,3.553 0.923,5.813 2.169,0.738 4.152,1.707 5.444,3.092 1.338,1.292 2.492,2.999 2.953,4.937 7.383,-3.968 13.704,-5.86 19.148,-6.183 5.493,-0.231 9.921,2.537 13.474,4.567 3.14,1.8 5.029,3.507 6.414,6.553 1.384,3.045 1.153,10.197 1.984,11.489 0.646,1.153 1.385,-0.37 2.216,-4.568 3.69,0.37 6.736,1.892 9.32,4.568 2.538,2.63 4.892,6.875 5.813,11.305 0.786,4.245 1.017,10.659 -0.735,14.442 -1.848,3.692 -6.139,6.783 -10.014,7.845 -3.968,0.692 -9.783,-0.046 -13.521,-2.4 -3.968,-2.353 -7.012,-7.613 -8.952,-11.305 -1.845,-3.737 -2.213,-6.552 -1.982,-10.936 0.275,-4.568 3.69,-14.073 3.83,-15.873 0.093,-1.753 -1.291,-0.276 -3.645,4.938 -1.755,-2.307 -3.462,-3.83 -5.308,-4.753 -1.707,-0.969 -3.046,-0.923 -5.445,-0.738 -2.261,0.092 -5.353,0.646 -8.767,1.661 3.599,2.676 5.906,5.583 6.921,8.905 1.016,3.23 0.646,6.414 -0.553,10.613 -1.016,4.015 -4.43,9.69 -5.63,13.843 -1.107,3.968 -1.246,6.829 -1.107,10.382 0.322,3.46 1.107,6.875 2.537,10.428 -2.813,0.646 -4.752,1.431 -5.813,2.168 -1.153,0.785 -1.522,2.123 -0.369,2.399 1.477,0.046 5.814,-1.753 8.768,-1.661 3.184,0.046 6.275,0.554 9.459,2.03 3.277,1.431 6.229,2.907 9.506,6.184 3.137,3.229 7.475,9.09 9.458,12.412 1.984,3.138 2.493,5.076 2.03,6.184 -2.121,-1.615 -3.46,-1.984 -3.828,-1.292 -0.508,0.738 1.106,2.63 1.292,5.675 0.23,2.861 1.062,7.706 -0.738,11.305 -2.123,3.414 -7.2,6.875 -11.491,9.505 -4.291,2.584 -11.95,3.922 -14.257,5.999 -2.169,1.984 -1.8,3.876 1.106,5.861 0.277,2.446 0.462,4.567 0.738,6.183 0.324,1.615 0.738,2.768 1.062,3.46 -0.369,0.969 -1.938,1.893 -4.706,2.769 -2.769,0.877 -6.599,1.661 -11.675,2.539 -0.6,-1.984 -0.969,-3.691 -1.106,-5.491 -0.139,-1.846 0.045,-3.415 0.369,-5.076 2.583,-0.369 4.521,-1.893 5.629,-4.568 1.199,-2.722 1.568,-11.121 1.292,-11.674 -0.185,-0.461 -0.97,5.722 -2.538,8.213 -1.431,2.354 -3.507,4.891 -6.229,5.63 -2.723,0.369 -5.998,-1.477 -9.459,-2.354 -3.184,-0.923 -5.768,-2.307 -10.243,-2.907 -4.43,-0.646 -9.783,-1.246 -16.243,-1.292 -0.045,-1.477 0.508,-2.445 1.846,-2.906 1.384,-0.508 2.677,-0.508 6.184,0 3.691,0.369 11.767,2.814 15.319,2.906 3.646,0.139 5.491,-0.646 6.045,-2.353 0.646,-2.03 -0.139,-6.321 -2.723,-9.136 -2.584,-2.861 -9.875,-4.891 -12.597,-8.028 -2.538,-3.415 -3.507,-7.245 -2.907,-11.859 0.969,-0.692 2.354,-0.323 4.522,0.923 2.261,1.246 6.599,5.86 8.213,6.552 1.754,0.416 2.769,-1.384 1.292,-3.091 -1.615,-1.616 -7.152,-5.538 -10.566,-6.599 -3.23,-1.246 -6.091,-1.061 -8.767,-0.507 -2.538,0.415 -4.615,1.799 -6.414,3.645 -1.707,1.892 -3.045,4.383 -4.015,7.66 3.184,2.491 5.676,4.799 7.66,6.921 2.123,1.984 4.292,4.292 4.014,5.676 -0.323,1.245 -3.921,0.784 -5.813,2.353 -1.753,1.569 -3.276,3.876 -4.752,7.106 -1.246,0.323 -2.769,0.507 -4.384,0.369 -1.662,-0.138 -3.415,-0.508 -5.445,-1.108 -1.569,3.138 -4.614,5.398 -9.137,6.968 -4.476,1.568 -10.797,2.999 -17.718,2.353 -6.737,-0.922 -16.519,-3.23 -22.61,-7.291 -6.091,-4.337 -10.659,-12.32 -13.335,-17.534 -2.446,-5.353 -1.431,-9.598 -1.431,-13.104 0.138,-3.368 0.738,-5.814 1.984,-7.152 2.583,5.491 6.598,9.69 12.043,12.782 5.675,3.045 14.396,6.183 20.625,5.675 6.275,-0.692 12.643,-4.798 16.427,-9.321 3.876,-4.614 7.245,-11.813 6.553,-17.673 -0.554,-6.137 -5.076,-12.458 -10.013,-17.903 -4.892,-5.583 -11.397,-10.151 -19.518,-14.581 l 2.353,-1.661 c 5.491,0.553 10.013,1.892 14.074,3.83 3.922,1.754 7.013,3.646 9.828,7.66 3.092,4.199 6.414,13.658 8.213,16.611 1.846,2.492 3.23,1.661 2.538,-0.554 -0.646,-2.168 -2.583,-6.367 -6.183,-12.413 1.523,-1.338 3.045,-1.568 4.753,-0.876 1.707,0.738 4.292,2.491 5.26,5.26 1.153,2.492 1.107,6.506 1.107,10.244 0.046,3.784 -1.153,10.474 -0.922,12.043 0.507,1.246 2.261,-1.938 2.953,-3.83 0.646,-1.938 0.831,-4.153 0.554,-7.152 3.968,-1.661 7.798,-4.938 11.674,-9.644 4.153,-4.891 8.813,-11.859 11.49,-18.965 2.63,-7.336 4.568,-17.811 3.83,-23.763 -0.785,-5.86 -4.292,-9.921 -8.029,-11.121 -3.645,-1.246 -8.859,0.554 -13.335,3.646 -4.245,2.907 -9.274,9.367 -12.413,14.212 -3.092,4.844 -4.799,9.644 -5.999,14.211 -1.061,4.338 -1.246,8.167 -0.553,11.674 l -3.461,-1.061 c -0.739,-1.754 -1.661,-3.092 -2.953,-4.199 -1.2,-1.107 -2.584,-1.846 -4.337,-2.215 2.261,-5.306 4.061,-10.659 4.891,-15.873 0.877,-5.445 1.477,-11.858 0.739,-15.688 -0.416,-3.784 -2.353,-7.152 -4.199,-6.552 -1.8,0.6 -5.353,5.537 -7.106,9.828 -1.569,4.014 -2.538,10.798 -3.092,14.812 -0.461,4.061 -0.646,6.921 -0.185,9.09 -1.062,-0.185 -2.215,-0.415 -3.461,-0.507 -1.246,-0.139 -2.399,-0.139 -3.83,-0.185 2.769,-6.275 4.707,-12.55 5.999,-19.011 1.292,-6.46 1.43,-14.442 1.476,-19.518 0.185,-5.214 0,-9.043 -0.554,-11.674 -3.969,2.769 -7.199,5.629 -9.69,8.583 -2.492,2.953 -4.245,5.999 -5.26,9.136 -0.508,-4.015 0.092,-8.029 1.984,-12.228 2.077,-4.338 5.538,-9.367 9.321,-12.782 3.783,-3.368 8.813,-5.629 12.781,-7.291 4.015,-1.753 7.475,-2.907 10.751,-3.276 -6.414,-0.969 -11.905,-0.969 -16.98,-0.185 -4.983,0.784 -9.182,2.722 -12.781,4.938 -3.509,1.984 -5.955,4.429 -7.847,7.336 z" /><path
     id="path13"
     style="fill-rule:evenodd;stroke:#000000;stroke-width:0.036;stroke-miterlimit:10"
     inkscape:connector-curvature="0"
     d="m 100.54,92.603 c 0.554,-6.968 1.892,-10.613 3.83,-11.12 2.077,-0.554 4.753,2.122 8.214,8.028 -2.538,-1.246 -4.845,-1.385 -6.921,-0.923 -1.939,0.462 -3.647,1.799 -5.123,4.015 z" /><path
     id="path15"
     style="fill:#e9c6af;fill-rule:evenodd;stroke:#000000;stroke-width:0.036;stroke-miterlimit:10"
     inkscape:connector-curvature="0"
     d="m 102.2,88.404 c 0.323,-3.276 1.108,-4.983 2.354,-5.122 1.292,-0.231 3,1.107 5.306,4.014 -2.446,-0.6 -4.106,-0.646 -5.491,-0.508 -1.339,0.231 -1.892,0.647 -2.169,1.616 z" /><path
     id="path17"
     style="fill-rule:evenodd;stroke:#000000;stroke-width:0.036;stroke-miterlimit:10"
     inkscape:connector-curvature="0"
     d="m 144.33,88.588 c 1.153,-4.061 3.045,-7.105 5.675,-9.136 2.722,-2.215 7.659,-4.43 10.197,-3.276 2.631,1.153 4.568,5.814 5.122,10.428 0.601,4.476 0.046,9.875 -1.661,16.381 -2.445,-6.322 -5.075,-10.751 -8.398,-13.104 -3.183,-2.446 -6.828,-2.815 -10.935,-1.293 z" /><path
     id="path19"
     style="fill:#e9c6af;fill-rule:evenodd;stroke:#000000;stroke-width:0.036;stroke-miterlimit:10"
     inkscape:connector-curvature="0"
     d="m 147.42,86.05 c 0.691,-2.261 2.03,-3.968 4.014,-5.307 2.077,-1.476 6.183,-3.691 8.213,-2.722 2.123,1.015 3.646,5.537 4.199,8.951 0.6,3.23 0.6,6.875 -0.369,10.751 -2.076,-4.752 -4.384,-8.167 -7.106,-10.059 -2.63,-1.936 -5.676,-2.537 -8.951,-1.614 z" /><path
     id="path21"
     style="fill:#ffffff;fill-rule:evenodd;stroke:#000000;stroke-width:0.036;stroke-miterlimit:10;filter:url(#filter3349)"
     inkscape:connector-curvature="0"
     d="m 79.359,168.92 c 0,5.537 5.029,10.013 11.258,10.013 6.184,0 11.213,-4.476 11.213,-10.013 0,-5.537 -5.029,-10.059 -11.213,-10.059 -6.229,0 -11.258,4.522 -11.258,10.059 z" /><path
     id="path23"
     style="fill:#ffffff;fill-rule:evenodd;stroke:#000000;stroke-width:0.036;stroke-miterlimit:10"
     inkscape:connector-curvature="0"
     d="m 99.292,130.99 c -0.323,-3.969 -0.277,-7.798 0.138,-11.674 0.462,-4.153 1.2,-7.983 2.584,-11.49 1.615,-3.507 4.568,-8.444 6.184,-8.767 1.799,-0.277 2.769,3.045 3.275,6.783 0.508,3.646 0.046,8.444 -0.876,14.766 -1.708,-1.338 -3.23,-1.708 -4.568,-1.292 -1.338,0.415 -2.677,1.753 -3.461,4.014 -0.692,2.215 -0.876,5.03 -0.738,8.952 -0.831,-0.415 -1.661,-0.831 -2.538,-1.292 z" /><path
     id="path25"
     style="fill:#ffffff;fill-rule:evenodd;stroke:#000000;stroke-width:0.036;stroke-miterlimit:10"
     inkscape:connector-curvature="0"
     d="m 120.24,130.49 c 0.415,-3.368 1.753,-6.736 4.014,-10.613 2.308,-3.875 6.552,-9.136 9.69,-12.228 3.368,-3.23 6.875,-5.768 9.829,-6.552 3.184,-0.739 6.044,-0.139 8.213,1.984 2.168,1.938 4.753,4.292 4.383,10.428 -0.231,6.183 -2.123,18.318 -6.368,26.255 -4.291,7.752 -10.382,14.443 -18.964,20.257 -0.185,-2.63 -0.554,-4.707 -1.107,-6.737 -0.507,-2.03 -1.062,-3.737 -1.846,-5.121 2.676,-3.138 4.384,-6.368 5.491,-9.505 1.153,-3.323 1.938,-7.43 0.923,-9.645 -0.97,-2.214 -4.292,-3.783 -6.783,-3.46 -2.308,0.184 -4.799,1.891 -7.475,4.937 z" /><path
     id="path27"
     style="fill:#ffffff;fill-rule:evenodd;stroke:#000000;stroke-width:0.036;stroke-miterlimit:10"
     inkscape:connector-curvature="0"
     d="m 124.81,132.47 c 0,2.168 1.984,3.922 4.384,3.922 2.4,0 4.383,-1.754 4.383,-3.922 0,-2.123 -1.984,-3.875 -4.383,-3.875 -2.399,0 -4.384,1.753 -4.384,3.875 z" /><path
     id="path29"
     style="fill:#ffffff;fill-rule:evenodd;stroke:#000000;stroke-width:0.036;stroke-miterlimit:10"
     inkscape:connector-curvature="0"
     d="m 103.45,122.73 c 0,1.292 1.2,2.354 2.676,2.354 1.431,0 2.63,-1.062 2.63,-2.354 0,-1.292 -1.199,-2.353 -2.63,-2.353 -1.476,0 -2.676,1.062 -2.676,2.353 z" /><path
     id="path31"
     style="fill:#ffffff;fill-rule:evenodd;stroke:#000000;stroke-width:0.036;stroke-miterlimit:10"
     inkscape:connector-curvature="0"
     d="m 133.95,188.12 c 0.277,-2.584 1.477,-4.521 3.092,-5.999 1.846,-1.523 4.107,-2.445 7.291,-2.768 0.23,2.629 0.415,4.891 0.554,6.783 0.277,1.753 0.461,3.137 0.738,4.152 -1.292,0.185 -2.261,0.739 -3.091,1.477 -0.738,0.738 -1.292,1.708 -1.661,2.907 -1.523,-1.661 -2.861,-3 -4.014,-4.014 -1.155,-1.153 -2.125,-1.938 -2.909,-2.538 z" /><path
     id="path33"
     style="fill:#ff5200;fill-rule:evenodd;stroke:#000000;stroke-width:0.036;stroke-miterlimit:10"
     inkscape:connector-curvature="0"
     d="m 141.97,196.33 c 0.092,-1.2 0.692,-1.985 1.43,-2.538 0.923,-0.738 2.077,-1.154 3.461,-0.738 1.523,0.415 4.061,2.215 4.938,3.645 0.969,1.431 0.969,3.553 0.369,4.937 -0.416,1.2 -2.815,2.169 -3.461,3.092 -0.507,1.015 -0.738,1.8 -0.185,2.722 -1.431,-0.369 -3.137,-0.554 -4.938,-0.554 -1.845,-0.092 -3.783,0.093 -5.999,0.369 1.431,-1.015 2.584,-1.984 4.015,-2.907 1.43,-0.923 4.199,-1.477 4.199,-2.723 0.139,-1.383 -1.199,-3.091 -3.829,-5.305 z" /><path
     id="path35"
     style="fill:#ff5200;fill-rule:evenodd;stroke:#000000;stroke-width:0.036;stroke-miterlimit:10"
     inkscape:connector-curvature="0"
     d="m 155.26,197.44 c 1.154,0.231 4.891,1.984 6.045,3.83 1.43,1.8 2.168,5.168 1.66,6.737 -0.461,1.292 -2.399,1.846 -4.567,1.846 -2.123,-0.046 -6.46,-0.785 -7.845,-1.661 -1.107,-1.108 -0.461,-3.692 0.508,-4.015 1.246,-0.277 4.983,2.169 5.676,2.169 0.6,-0.369 -1.246,-2.123 -1.8,-3.276 -0.369,-1.338 -0.553,-2.491 -0.553,-3.461 0.045,-1.016 -0.139,-2.446 0.876,-2.169 z" /><path
     id="path37"
     style="fill:#ff0000;fill-rule:evenodd;stroke:#000000;stroke-width:0.036;stroke-miterlimit:10"
     inkscape:connector-curvature="0"
     d="m 167.49,221.53 3.461,1.845 c -4.568,2.307 -7.106,4.43 -7.983,6.183 -0.738,1.8 0,3.922 3.276,4.383 3.507,0.184 11.352,-0.785 17.119,-2.722 5.952,-2.123 14.35,-5.998 17.349,-8.767 2.954,-2.861 1.477,-6.183 0.37,-7.475 -1.154,-1.292 -7.567,0.37 -7.475,0 0.368,-0.554 6.136,-2.584 8.767,-3.091 2.583,-0.692 5.72,-1.708 6.552,-0.554 0.738,1.108 -2.77,5.26 -2.539,7.291 0.093,1.893 1.478,2.999 2.909,4.569 1.154,1.429 4.751,1.522 4.566,4.198 -0.323,2.492 -2.213,7.198 -5.676,10.936 -3.689,3.554 -8.812,8.674 -14.95,10.75 -5.905,1.985 -14.856,1.708 -20.255,1.477 -5.307,-0.416 -9.782,-1.568 -11.489,-3.275 -1.478,-1.708 3.275,-4.246 2.168,-6.922 -1.062,-2.907 -7.844,-7.568 -8.398,-9.875 -0.185,-2.353 4.2,-2.445 6.23,-3.83 2.075,-1.522 4.014,-3.229 5.998,-5.121 z" /><path
     id="path39"
     style="fill:#800000;fill-rule:evenodd;stroke:#000000;stroke-width:0.036;stroke-miterlimit:10"
     inkscape:connector-curvature="0"
     d="m 171.69,226.65 c -2.907,0.924 -4.661,1.893 -5.261,2.908 -0.415,0.83 0.831,2.354 1.8,2.769 1.015,0.276 2.353,0.091 4.014,-0.739 -0.185,-1.615 -0.369,-3.276 -0.553,-4.938 z" /><path
     id="path41"
     style="fill:#800000;fill-rule:evenodd;stroke:#000000;stroke-width:0.036;stroke-miterlimit:10"
     inkscape:connector-curvature="0"
     d="m 191.21,218.43 c 1.893,-0.923 3.37,-1.338 4.939,-1.431 1.707,-0.231 3.645,0.23 4.198,0.877 0.508,0.645 0.138,1.983 -1.292,3.321 -1.432,1.154 -3.552,2.492 -6.922,4.016 -0.601,-2.077 -1.199,-3.6 -1.292,-4.753 -0.046,-1.107 -0.091,-1.846 0.369,-2.03 z" /><path
     id="path43"
     style="fill:#e9c6af;fill-rule:evenodd;stroke:#000000;stroke-width:0.036;stroke-miterlimit:10"
     inkscape:connector-curvature="0"
     d="m 168.78,252.9 c 2.398,0.416 4.521,0.785 6.552,0.922 1.984,0.046 3.876,0.046 5.491,-0.184 3.368,6.137 5.491,12.827 6.552,20.811 1.2,7.844 1.016,17.672 -0.369,26.255 -1.43,8.443 -4.337,16.657 -8.535,24.641 -2.954,-3.461 -5.399,-7.107 -7.337,-10.937 -1.846,-3.876 -3.184,-7.891 -4.016,-12.228 l -1.799,3.645 c -1.062,-3.045 -1.614,-5.721 -2.03,-8.213 -0.323,-2.537 -0.323,-4.845 0,-6.921 l -3.646,4.198 c -0.139,-2.86 -0.139,-5.536 0.369,-8.028 0.416,-2.584 1.338,-4.892 2.399,-7.106 l -3.829,-1.477 c 0.922,-2.307 2.075,-4.613 3.46,-7.105 1.662,-2.446 3.83,-4.707 5.075,-7.659 1.155,-3.14 1.709,-6.554 1.663,-10.614 z" /><path
     id="path45"
     style="fill:#ffffff;fill-rule:evenodd;stroke:#000000;stroke-width:0.036;stroke-miterlimit:10"
     inkscape:connector-curvature="0"
     d="m 210.54,318.15 c 0.416,1.152 1.707,1.938 3.878,2.537 2.123,0.508 5.029,0.691 8.904,0.554 -2.721,3.969 -4.661,7.799 -5.998,11.305 -1.385,3.414 -2.123,5.398 -2.216,9.874 -0.093,4.477 0.278,10.244 1.478,17.304 -2.954,-1.476 -5.86,-3.045 -8.214,-4.521 -2.398,-1.615 -4.751,-3.138 -6.552,-4.752 -1.108,-1.939 -0.923,-3.83 0.368,-5.491 1.34,-1.754 6.554,-3.046 7.66,-4.938 0.784,-2.076 -1.432,-4.567 -1.477,-6.92 0.045,-2.399 1.43,-4.707 1.845,-7.106 0.372,-2.588 0.416,-5.033 0.324,-7.846 z" /><path
     id="path47"
     style="fill:#e9c6af;fill-rule:evenodd;stroke:#000000;stroke-width:0.036;stroke-miterlimit:10"
     inkscape:connector-curvature="0"
     d="m 151.8,344.59 c -1.153,-1.292 -2.308,-2.815 -3.276,-4.569 -0.969,-1.891 -1.938,-3.783 -2.722,-6.182 -4.66,-2.492 -9.229,-3.83 -13.705,-4.016 -4.43,-0.138 -9.274,0.646 -12.781,2.538 -3.415,1.708 -5.906,5.215 -7.66,7.845 -1.522,2.537 -2.307,5.629 -2.353,7.476 -0.092,1.66 0.461,2.583 1.662,2.769 0.6,-1.662 1.199,-2.815 2.168,-3.461 1.107,-0.831 3.507,-1.661 3.46,-0.555 0.046,1.2 -3.368,4.522 -3.83,7.475 -0.416,2.862 -1.708,6.369 0.922,9.275 2.769,2.769 7.937,5.215 15.504,7.336 -0.323,-4.797 0.646,-8.767 3.091,-12.596 2.676,-3.923 8.352,-7.567 11.674,-9.874 3.324,-2.353 5.816,-3.323 7.846,-3.461 z" /><path
     id="path49"
     style="fill:#e9c6af;fill-rule:evenodd;stroke:#000000;stroke-width:0.036;stroke-miterlimit:10"
     inkscape:connector-curvature="0"
     d="m 190.33,365.03 c -1.062,-4.43 -3.923,-8.076 -9.137,-10.937 -5.076,-2.907 -15.043,-5.814 -21.364,-6.413 -6.044,-0.739 -11.212,0.184 -15.503,2.399 -4.292,2.26 -7.937,7.566 -10.198,10.75 -2.076,3.139 -2.769,5.629 -2.769,7.659 0.093,1.754 1.015,2.908 2.953,3.277 0.046,-0.785 0.461,-1.938 1.246,-3.092 1.015,-1.477 3.415,-4.66 3.646,-4.384 0.138,0.37 -2.261,3.922 -2.722,6.737 -0.277,2.723 -0.692,6.553 0.554,9.689 1.43,3.045 5.352,6.737 7.291,8.398 2.168,1.476 3.276,0.83 4.568,0.737 1.2,-0.092 2.169,-0.646 2.723,-1.476 -1.754,-2.216 -2.723,-3.923 -2.907,-5.308 0.092,-1.568 0.831,-3.968 2.03,-2.906 1.107,1.154 1.661,7.291 4.522,9.506 3.091,2.03 9.321,2.814 13.52,3.092 4.384,0.092 8.213,-0.878 12.043,-1.661 4.015,-0.924 7.613,-2.077 11.305,-3.461 -1.799,-0.969 -2.953,-1.938 -3.461,-3.092 -0.508,-1.154 -0.092,-2.307 0.738,-3.646 -2.261,-1.523 -3.599,-3.23 -4.198,-5.121 -0.369,-1.938 0.23,-4.707 1.107,-6.368 0.874,-1.889 2.213,-3.227 4.013,-4.379 z" /><path
     id="path51"
     style="fill:#e9c6af;fill-rule:evenodd;stroke:#000000;stroke-width:0.036;stroke-miterlimit:10"
     inkscape:connector-curvature="0"
     d="m 260.01,379.79 c -4.982,1.385 -9.967,1.568 -15.134,0.738 -5.307,-1.062 -11.074,-3.783 -15.874,-6.184 -4.892,-2.491 -8.258,-6.413 -12.779,-8.028 -4.616,-1.614 -10.062,-1.753 -14.029,-1.66 -3.968,0.046 -7.012,0.6 -9.505,1.845 -2.445,1.154 -4.383,3.138 -4.937,5.261 -0.37,1.938 0.369,4.198 2.398,6.783 2.585,-2.17 4.152,-3.277 4.523,-3.139 0.46,0 -1.154,2.215 -1.801,3.646 -0.46,1.477 -2.077,2.999 -1.291,4.753 0.921,1.522 2.168,2.814 6.413,4.383 4.429,1.569 11.351,3.691 19.334,4.569 7.843,0.691 19.979,0.507 27.177,-0.37 7.06,-1.2 11.398,-3.321 14.768,-5.121 3.092,-1.708 4.198,-3.691 4.384,-4.892 0.09,-1.246 -1.062,-2.168 -3.647,-2.584 z" /><path
     id="path53"
     style="fill:#e9c6af;fill-rule:evenodd;stroke:#000000;stroke-width:0.036;stroke-miterlimit:10"
     inkscape:connector-curvature="0"
     d="m 333.88,299.51 c -0.275,-3.046 -1.062,-6.46 -2.354,-10.061 -1.292,-3.645 -3.185,-7.659 -5.49,-11.858 l -1.246,4.015 c -5.813,-6.045 -11.536,-11.027 -17.166,-14.949 -5.675,-3.969 -11.213,-6.829 -16.795,-8.769 v 2.723 c -3.367,0.139 -6.6,-1.245 -10.196,-4.521 -3.556,-3.368 -8.444,-9.552 -10.938,-14.813 -2.629,-5.398 -4.153,-11.812 -4.752,-16.749 -0.786,-4.938 -0.601,-9.137 0.368,-12.597 -4.013,5.537 -7.428,10.89 -10.059,16.242 -2.861,5.214 -5.167,10.797 -6.184,15.503 -1.062,4.662 -1.062,8.859 0,12.597 l -3.645,-3.507 c 0.783,5.261 2.721,10.429 6.184,15.689 3.414,5.168 8.581,10.29 14.074,15.365 5.259,5.029 13.703,11.027 17.671,14.95 3.782,3.784 4.661,4.8 5.86,7.659 1.199,2.723 1.615,5.677 1.43,8.86 0.601,-2.538 1.339,-4.431 1.848,-5.676 0.322,-1.431 0.506,-2.538 1.43,-2.076 0.923,0.415 2.676,1.983 4.751,4.706 -0.138,-2.261 0.232,-3.645 1.109,-4.153 0.831,-0.646 2.168,-0.414 4.013,0.692 0.693,-4.475 0.323,-8.49 -0.736,-12.043 -1.246,-3.645 -3.185,-6.736 -6.184,-9.459 7.613,4.291 13.381,8.306 17.486,12.735 4.016,4.245 6.276,8.629 6.784,12.966 0.599,-4.014 0.784,-7.844 0.368,-11.489 -0.415,-3.737 -1.337,-7.198 -2.769,-10.566 2.03,1.568 3.555,3.092 4.754,4.568 1.062,1.43 1.8,2.768 2.03,4.198 0.045,-1.521 0.045,-2.86 0,-4.014 -0.138,-1.292 -0.323,-2.4 -0.554,-3.322 2.354,2.723 4.105,4.799 5.26,6.598 1.154,1.754 1.522,2.907 1.478,3.646 0.692,-1.014 1.43,-2.028 2.17,-3.09 z" /><path
     id="path55"
     style="fill:#c87137;fill-rule:evenodd;stroke:#000000;stroke-width:0.036;stroke-miterlimit:10"
     inkscape:connector-curvature="0"
     d="m 165.51,308.6 c -2.03,2.952 -3.737,5.998 -5.307,9.136 -1.338,3.138 -1.846,6.599 -3.83,9.506 -2.123,2.769 -4.799,5.075 -8.583,7.105 0.369,1.568 0.876,3.092 2.03,4.753 1.154,1.661 2.677,3.229 4.568,5.075 2.076,-0.046 4.199,0.139 6.367,0.369 2.262,0.14 4.568,0.507 6.922,0.923 2.584,-3.138 4.476,-5.998 6.045,-8.767 1.477,-2.77 2.63,-5.26 3.091,-7.659 -3.275,-4.846 -5.952,-9.045 -7.844,-12.413 -1.89,-3.553 -3.043,-5.998 -3.459,-8.028 z" /><path
     id="path57"
     style="fill:#c87137;fill-rule:evenodd;stroke:#000000;stroke-width:0.036;stroke-miterlimit:10"
     inkscape:connector-curvature="0"
     d="m 170.95,345.23 c 3.876,1.614 6.921,3.138 9.689,4.753 2.814,1.477 4.753,2.583 6.552,4.567 1.893,1.938 3.231,4.246 4.385,7.105 2.215,-2.214 3.923,-4.337 5.122,-6.367 1.291,-2.168 1.89,-4.061 2.168,-6.044 -1.66,-1.108 -2.076,-2.446 -0.877,-4.015 1.337,-1.754 6.459,-3.691 7.844,-5.629 1.108,-1.893 -0.554,-4.016 -0.368,-5.86 0.045,-1.984 0.646,-3.461 1.246,-5.86 0.646,-2.492 1.798,-5.168 2.214,-9.275 0.14,-4.521 -0.046,-11.535 -0.554,-16.426 -0.461,-4.799 -1.247,-8.167 -2.168,-12.228 -1.109,-4.43 -3.923,-12.551 -3.645,-12.967 0.322,-0.23 3.321,9.366 5.26,10.982 1.659,1.246 4.428,-2.585 5.307,-2.399 0.829,0.276 0.413,2.86 -0.186,4.015 -0.831,0.922 -3.229,0 -3.645,2.399 -0.323,2.445 1.106,7.936 1.614,12.182 0.275,4.061 0.691,8.26 0.739,12.411 1.752,1.247 3.83,2.216 6.229,2.399 2.353,0.14 5.029,0 8.028,-0.922 0.693,-2.399 2.26,-4.291 4.892,-5.86 2.49,-1.661 7.567,-3.046 10.429,-3.46 2.769,-0.555 7.613,-0.139 6.552,0.737 -1.154,0.831 -9.32,1.523 -13.288,4.384 -4.153,2.677 -8.584,6.645 -11.168,12.412 -2.769,5.722 -4.338,15.504 -4.706,21.871 -0.416,6.138 -0.461,10.844 2.538,15.366 2.999,4.522 9.228,9.229 15.318,11.628 6.046,2.261 14.397,2.86 20.258,1.615 5.63,-1.522 9.828,-5.399 13.658,-9.829 3.645,-4.568 7.335,-9.874 8.767,-16.98 1.244,-7.289 3.137,-17.719 -0.37,-25.933 -3.598,-8.351 -12.134,-17.44 -20.255,-23.348 -8.307,-5.998 -21.274,-7.521 -28.424,-11.858 -7.062,-4.43 -9.322,-7.566 -14.074,-14.212 -4.937,-6.829 -9.921,-15.181 -15.135,-25.747 -1.801,1.384 -3.876,2.538 -6.922,3.461 -2.907,0.785 -6.321,1.568 -10.428,1.845 3.691,7.245 5.952,15.089 6.783,23.902 0.923,8.859 0.184,19.241 -1.662,28.47 -1.891,9.183 -6.183,19.058 -9.32,25.701 -2.999,6.508 -5.629,10.66 -8.397,13.014 z" /><path
     id="path59"
     style="fill:#c87137;fill-rule:evenodd;stroke:#000000;stroke-width:0.036;stroke-miterlimit:10"
     inkscape:connector-curvature="0"
     d="m 284.09,331.67 c 2.77,-3.046 4.614,-5.538 6.046,-7.661 1.244,-2.121 1.845,-3.69 1.798,-4.89 1.062,-4.8 2.215,-7.245 3.462,-7.845 1.244,-0.554 2.398,1.015 3.83,4.706 -0.048,-3.321 0.506,-5.26 1.66,-5.998 1.108,-0.738 2.816,-0.139 5.121,1.8 1.154,-4.614 1.57,-8.445 1.062,-11.674 -0.601,-3.276 -1.938,-5.769 -4.198,-7.661 5.029,3.508 8.86,7.521 11.859,12.229 2.906,4.707 4.799,9.874 5.675,15.874 1.752,-3.601 2.722,-7.245 3.092,-11.122 0.23,-3.921 -0.138,-7.936 -1.292,-12.042 1.154,1.661 2.075,2.952 2.769,4.383 0.691,1.246 0.877,2.4 1.062,3.461 0.691,-1.477 1.244,-2.814 1.475,-4.199 0.233,-1.431 0.233,-2.583 0,-3.829 1.478,1.568 2.446,3.091 3.092,4.567 0.508,1.385 0.693,2.723 0.37,4.015 l 3.646,-4.198 c -0.691,9.873 -1.845,17.304 -3.646,22.793 -1.893,5.354 -3.785,6.091 -7.106,9.691 -3.505,3.552 -8.352,8.813 -12.78,11.305 -4.431,2.215 -8.859,2.537 -13.473,2.722 -4.709,0.185 -9.461,-0.414 -14.445,-1.615 0.556,-2.537 0.924,-5.029 1.109,-7.475 0.181,-2.492 -0.002,-4.937 -0.188,-7.337 z" /></g>
<metadata
   id="metadata35"><rdf:RDF><cc:Work><dc:format>image/svg+xml</dc:format><dc:type
         rdf:resource="http://purl.org/dc/dcmitype/StillImage" /><cc:license
         rdf:resource="http://creativecommons.org/publicdomain/zero/1.0/" /><dc:publisher><cc:Agent
           rdf:about="http://openclipart.org/"><dc:title>Openclipart</dc:title></cc:Agent></dc:publisher><dc:title></dc:title></cc:Work><cc:License
       rdf:about="http://creativecommons.org/publicdomain/zero/1.0/"><cc:permits
         rdf:resource="http://creativecommons.org/ns#Reproduction" /><cc:permits
         rdf:resource="http://creativecommons.org/ns#Distribution" /><cc:permits
         rdf:resource="http://creativecommons.org/ns#DerivativeWorks" /></cc:License></rdf:RDF></metadata></svg>
